<?xml version="1.0" encoding="utf-8"?>
<!-- Generator: Adobe Illustrator 16.0.0, SVG Export Plug-In . SVG Version: 6.00 Build 0)  -->
<!DOCTYPE svg PUBLIC "-//W3C//DTD SVG 1.1//EN" "http://www.w3.org/Graphics/SVG/1.1/DTD/svg11.dtd">
<svg version="1.1" id="Layer_1" xmlns="http://www.w3.org/2000/svg" xmlns:xlink="http://www.w3.org/1999/xlink" x="0px" y="0px"
	 width="1920px" height="1080px" viewBox="0 0 1920 1080" enable-background="new 0 0 1920 1080" xml:space="preserve">
<g id="background">
</g>
<g id="bubbles">
</g>
<g id="clownfish">
</g>
<g id="coral_x5F_illustration">
</g>
<g id="angelfish">
	<g>
		<path fill="#D5C528" d="M1183.665,113.962c0,0-122.884,76.245-126.534,113.15c-3.648,36.5,3.65,87.195,63.269,162.223
			c59.616,75.028,133.834,141.54,138.699,154.924c5.272,13.383,10.141,24.333,7.706,31.229c11.762,0.812,20.277,3.244,36.5-10.14
			c-3.244,26.361,5.272,103.822,37.312,134.646c-43.396-6.896-76.65-8.922-76.65-8.922s-0.406,16.628-48.262,115.179
			c-77.867-64.484-76.245-214.54-76.245-214.54L994.676,236.44l40.556-46.233L1183.665,113.962z"/>
		<path fill="#FFFFFF" d="M1416.86,608.742c-1.216-69.756-9.327-109.095,30.822-193.451
			c-44.206,61.239-68.134,116.801-68.134,116.801s-6.084,130.59,13.383,149.65c19.062,19.062,95.308,98.551,95.308,98.551
			s-23.929-60.428-38.528-84.354C1434.705,671.604,1417.267,640.376,1416.86,608.742z"/>
		<path d="M1079.031,180.067c0,0-41.772,45.017-42.178,72.595c-0.406,27.578,11.354,56.778,51.1,124.912
			c39.745,67.729,113.962,207.24,125.316,290.379c11.356,56.373,26.768,113.962-32.039,225.085
			c-20.276,47.45,2.435,151.679,36.502,195.884c-82.328-74.622-119.641-122.884-119.641-122.884L999.137,566.97L965.07,252.257
			l57.589-58.806L1079.031,180.067z"/>
		<path fill="#FFFFFF" d="M1408.75,0c0,0-298.085,125.317-399.069,182.906c-48.667,32.039-135.86,118.829-135.86,118.829
			s-70.567,57.184-74.219,81.922c-3.243,24.739,0,178.852,0,178.852l21.495,195.073l55.562,150.056l76.649,47.856
			c0,0,78.272,3.244,103.013,8.517c25.55,21.494,161.006,124.507,161.006,124.507s-51.911-44.207-88.816-134.646
			c16.223-91.251-10.14-187.368-20.277-244.552c-10.139-57.185-55.156-162.629-85.979-283.079
			c-30.822-120.451-61.239-194.668,163.44-313.091C1316.688,43.8,1408.75,0,1408.75,0z"/>
		<path d="M634.54,567.781c0,0,15.411-41.773,101.39-141.54c85.979-99.769,138.295-124.506,138.295-124.506
			c-59.617,71.785-40.961,110.717-37.312,177.229c3.245,66.511,8.517,136.268,31.634,169.522s44.206,204.4,85.167,307.008
			c-35.688,0-75.839-4.461-83.545,0c17.845,11.761,85.979,113.556,113.556,124.506c-109.904-28.795-156.139-81.923-181.688-109.095
			c-57.994-15.411-98.956-45.019-98.956-45.019s-48.667-66.917-51.506-78.271c-2.839-11.355,5.271-234.817,5.271-234.817
			L634.54,567.781z"/>
		<path fill="#FFFFFF" d="M646.301,847.21c-10.139-30.822-23.115-39.339-58.806-39.339c-35.688,0-36.5,5.271-47.855,0
			c-10.95-4.867-42.179-49.884-107.066-49.479c29.604-15.815,111.528-26.36,111.528-26.36l64.077-62.861l26.361-101.389
			c0,0,14.194-40.558,101.39-141.54c0,0-51.101,101.39-44.205,123.694c-8.518,23.116-21.496,111.528-21.496,111.528
			s-13.787,100.578-12.978,179.662c1.622,21.494,40.556,77.056,45.017,84.355C648.734,863.433,646.301,847.21,646.301,847.21z"/>
		<path d="M735.93,426.241c0,0-97.334,102.2-107.473,134.646c-10.141,32.444-15.412,153.301-110.718,163.846
			c-95.307,10.139-85.167,33.66-85.167,33.66c83.545-15.41,124.506-32.039,130.994,32.445c63.268-10.14,15.412-54.751,15.412-54.751
			c25.55-44.205,51.91-78.678,58.806-159.789C642.651,535.742,690.507,483.02,735.93,426.241z"/>
		<path fill="#D5C528" d="M906.264,339.046c0,0-36.906,149.651-17.845,219.812c19.062,70.16,47.45,249.418,68.945,259.557
			c21.898,10.14,98.55,30.823,125.316,8.923c26.768-21.9,40.962-29.604,26.768-111.935
			c-14.194-82.328-53.128-219.406-74.218-270.508c-21.09-51.1-62.051-176.822,10.14-234.412
			C961.014,269.696,927.758,300.518,906.264,339.046z"/>
		<path d="M1447.684,415.291c0,0-116.801,130.59-143.974,150.057c-25.55,48.667,37.312,134.646,37.312,134.646
			s109.096,93.685,137.484,86.79c27.983-6.896-11.762-16.224-41.771-85.167c-30.013-68.945-42.584-95.308-33.256-186.558
			C1408.344,468.824,1445.25,438.002,1447.684,415.291z"/>
		<ellipse cx="702.674" cy="599.414" rx="32.85" ry="34.878"/>
		<g>
			<path fill="#D5C528" d="M754.224,750.3c0,0,56.53-75.206,72.333-65.008c15.804,10.198,40.047,170.374,23.293,167.122
				c-16.752-3.251-79.194-49.558-79.194-49.558L754.224,750.3z"/>
			<path d="M851.386,724.15c0,0-45.003,5.733-60.735,20.858c29.147-4.147,52.931-12.687,61.468-13.541
				C860.655,730.614,851.386,724.15,851.386,724.15z"/>
			<path d="M856.686,749.456c0,0-45.367-0.201-62.939,12.739c29.437-0.304,54.135-5.656,62.707-5.39
				C865.03,757.075,856.686,749.456,856.686,749.456z"/>
			<path d="M859.689,777.617c0,0-44.896-6.503-64.098,3.861c29.193,3.798,54.398,1.925,62.85,3.385
				C866.896,786.321,859.689,777.617,859.689,777.617z"/>
			<path d="M861.984,800.638c0,0-44.813-7.072-64.146,3.05c29.144,4.157,54.371,2.609,62.803,4.179
				C869.075,809.432,861.984,800.638,861.984,800.638z"/>
			<path d="M864.7,829.709c0,0-43.136-14.061-63.82-7.117c28.122,8.71,53.278,11.164,61.355,14.043
				C870.314,839.512,864.7,829.709,864.7,829.709z"/>
			<path d="M836.624,697.421c0,0-42.821,14.996-55.049,33.065c27.64-10.144,49.125-23.455,57.29-26.066
				C847.033,701.807,836.624,697.421,836.624,697.421z"/>
		</g>
	</g>
</g>
<g id="menu">
</g>
</svg>
