<?xml version="1.0" encoding="utf-8"?>
<!-- Generator: Adobe Illustrator 16.0.0, SVG Export Plug-In . SVG Version: 6.00 Build 0)  -->
<!DOCTYPE svg PUBLIC "-//W3C//DTD SVG 1.1//EN" "http://www.w3.org/Graphics/SVG/1.1/DTD/svg11.dtd">
<svg version="1.1" id="Layer_1" xmlns="http://www.w3.org/2000/svg" xmlns:xlink="http://www.w3.org/1999/xlink" x="0px" y="0px"
	 width="597px" height="272.409px" viewBox="0 0 597 272.409" enable-background="new 0 0 597 272.409" xml:space="preserve">
<g>
	<path fill="#221423" d="M487.272,30.274c0,0-70.13-46.707-171.187-24.092C124.491,49.058,84.851,103.15,125.192,119.736
		c40.342,16.585,0,28.069,0,28.069s-81.292,27.024,27.157,89.213c108.449,62.188,181.6,28.165,209.669,5.2
		S487.272,30.274,487.272,30.274z"/>
	<path fill="#47A9DA" d="M597,162.12c0,0-37.428-98.672-109.729-131.846C414.967-2.901,238.889,11.559,118.101,96.197
		c-11.908,8.08,25.519-2.978,32.324-0.426c25.519-27.219-11.059,72.304-11.059,72.304s-39.979-7.656-36.576,5.955
		c3.403,13.609,59.543,105.478,220.312,91.016C483.868,294.817,585.092,193.593,597,178.282c-6.805-5.104-14.461-9.356-14.461-9.356
		S589.958,162.534,597,162.12z"/>
	<path fill="#221423" d="M517.042,78.048c0,0-2.552-26.509-37.427-40.12c-34.877-13.609-100.373-16.162-197.345,6.805
		C185.299,67.7,129.159,104.469,118.951,113.73c-14.46-11.153-81.66-30.997-102.925-17.247
		c-21.266,46.924-18.714,94.559-7.656,97.11c11.058,2.552,109.73-40.829,109.73-40.829s-7.656,31.473,66.349,13.609
		s228.85-18.81,232.693-85.062c3.78-40.83,48.862-24.669,67.577,0.851C495.487,93.694,517.042,78.048,517.042,78.048z"/>
	<path fill="#47A9DA" d="M333.414,63.724c-76.076,19.218-82.163,31.708-74.892,40.415s37.892,5.754,72.34,6.805
		c34.448,1.051,79.104-17.935,74.001-40.551C399.759,47.776,362.814,56.297,333.414,63.724z"/>
	<g>
		<circle fill="#FFFFFF" cx="511.088" cy="87.264" r="16.873"/>
		<circle cx="511.089" cy="87.264" r="12.052"/>
	</g>
	<g>
		<path fill="#4791AF" d="M448.993,142.146c0,0-21.267-108.471-40.83-88.906c-19.565,19.564-41.68,97.823,4.252,123.341
			C425.174,164.672,448.993,142.146,448.993,142.146z"/>
		<g>
			<defs>
				<path id="SVGID_1_" d="M448.993,142.146c3.611-14.756-21.267-108.471-40.83-88.906c-19.565,19.564-41.68,97.823,4.252,123.341
					C425.174,164.672,445.381,156.901,448.993,142.146z"/>
			</defs>
			<clipPath id="SVGID_2_">
				<use xlink:href="#SVGID_1_"  overflow="visible"/>
			</clipPath>
			<path clip-path="url(#SVGID_2_)" fill="#221423" d="M384.432,118.138c0,0,2.032,23.82,18.601,34.767
				c-22.902-17.621-26.494-33.402-26.494-33.402L384.432,118.138z"/>
			<path clip-path="url(#SVGID_2_)" fill="#221423" d="M385.341,101.425c0,0,6.253,24.322,23.89,33.445
				c-24.644-15.09-29.893-30.399-29.893-30.399L385.341,101.425z"/>
			<path clip-path="url(#SVGID_2_)" fill="#221423" d="M388.798,88.304c0,0,9.395,24.029,28.344,29.965
				C390.258,107.673,382.44,93.5,382.44,93.5L388.798,88.304z"/>
			<path clip-path="url(#SVGID_2_)" fill="#221423" d="M393.146,71.23c0,0,7.096,25.842,25.051,34.323
				c-25.174-14.189-30.97-29.3-30.97-29.3L393.146,71.23z"/>
			<path clip-path="url(#SVGID_2_)" fill="#221423" d="M403.968,54.438c0,0,2.094,29.005,17.872,41.065
				c-21.64-19.154-24.139-35.144-24.139-35.144L403.968,54.438z"/>
			<path clip-path="url(#SVGID_2_)" fill="#221423" d="M416.211,46.657c0,0-3.393,28.884,9.839,43.693
				c-17.656-22.877-17.108-39.052-17.108-39.052L416.211,46.657z"/>
		</g>
	</g>
	<path fill="#EAD74F" d="M157.1,132.29c0,0-100.978-37.857-125.58-32.452c-23.458,7.07-33.082,66.828-14.308,79.727
		C23.374,182.188,157.1,132.29,157.1,132.29z"/>
</g>
</svg>
