<?xml version="1.0" encoding="utf-8"?>
<!-- Generator: Adobe Illustrator 21.0.2, SVG Export Plug-In . SVG Version: 6.00 Build 0)  -->
<svg version="1.1" xmlns="http://www.w3.org/2000/svg" xmlns:xlink="http://www.w3.org/1999/xlink" x="0px" y="0px"
	 viewBox="0 0 252.9 155.2" style="enable-background:new 0 0 252.9 155.2;" xml:space="preserve">
<style type="text/css">
	.st0{fill:#FFFFFF;}
	.st1{fill:#EB7324;}
	.st2{fill:#ED5B24;}
	.st3{fill:#F47621;}
	.st4{fill:#F7911E;}
	.st5{fill:#E96424;}
	.st6{fill:#D67C28;}
</style>
<g id="background">
</g>
<g id="bubbles">
</g>
<g id="clownfish">
	<g>
		<path class="st0" d="M138.9,8.6c0,0-5.3,25.9-21.6,28c-16.3,2-32.1-1.4-37.4-0.6c12,5.8,31.4,8.1,33.4,24.9
			c2,16.8,4.8,28.8,10.8,41.5c5.9,12.8,11.1,22.1,8.1,23.8c7.4-4.9,20.5-9.3,25.2-7.6c5.5-7.1,17.2-62.2,17.2-62.2L138.9,8.6z"/>
		<path d="M109.6,45.3c0,0-28.6-17.4-39.4-4.8C59.4,53,59,60.1,72.1,74.8L109.6,45.3z"/>
		<path d="M174.6,27.7c-1-8.7-3-28.9-14.6-27.7c-19.8,2.1-28,7.8-22.8,36c0.3,3.7,23.7,27.9,28.2,38.9L174.6,27.7z"/>
		<path d="M2.2,106.8c6.4,21.9,16.8,28.2,43.3,20.5c5.2-1.5,17.3-11.5,12.1-29.1c-5.1-17.6-23-31-36.8-26.9C3,76.4-3.9,86,2.2,106.8
			z"/>
		<path class="st0" d="M34.7,72.3c0,0,29.1,9.1,37.4,2.5c12,5.4,15.3,30.8,15.3,30.8l-8.7,5.9c0,0-15.1,2.6-33.2,15.7
			C39.3,95,34.7,72.3,34.7,72.3z"/>
		<path class="st1" d="M13.9,103.4c6.4,21.9,26.3,25.4,31.5,23.9c5.2-1.5,17.3-11.5,12.1-29.1c-5.1-17.6-18.9-24.6-22.9-25.9
			C31.2,73.3,7.9,82.6,13.9,103.4z"/>
		<path d="M132.5,121.5c0,0-3.1,15.2-34.6,18.1c-27.7,1.6-20-19.5-18.3-22.3c1.8-2.7,5.8-6.3,16.5-3.1
			C106.7,117.4,119.9,122.2,132.5,121.5z"/>
		<path class="st1" d="M109.6,45.3c0,0-20.5-12.9-31.3-0.4c-10.8,12.5-10,24.2-6.3,30c7.1,0.3,10,30.7,6.6,36.7
			c13.2,7.1,39.7,18,53.5,14.7C153.8,112.8,116.9,47.6,109.6,45.3z"/>
		<path d="M195.9,113.3c0,0,10.6,25.2,7.2,27.1c-3.4,1.8-11.3,2.5-20.8-6.8C172.9,124.2,195.9,113.3,195.9,113.3z"/>
		<path class="st2" d="M195.9,113.3c0,0,8.8,19,5.4,20.8c-3.4,1.8-11.3,2.5-20.8-6.8C171,118,195.9,113.3,195.9,113.3z"/>
		<path class="st3" d="M195,33c0,0-13.3-4.5-20.5-5.3c-1-8.7-1.5-24.4-13.1-23c-11.6,1.3-24,4.5-23.2,28.3
			c0.3,3.7,22.6,31,27.1,41.9c4.5,11-13.1,42.5-7.9,43.7c12.7,3.1,44.2,0.2,66.7-16C222.7,92.1,195,33,195,33z"/>
		<path class="st0" d="M195,33c0,0,22.3,5.2,26.1,8.6c3.8,3.4,3,61,3,61s-12.1,7.8-20.8,3.2c-8.8-4.6-25-15.5-22.3-39.7
			C183.5,41.7,195,33,195,33z"/>
		<path class="st4" d="M221.1,41.6c19.3,0.1,17,16,28.9,23.8c0.5,1.9,0.5,1.9,0.5,1.9s3.4,1.1,1.9,6.6c-1.5,5.5-16.8,24.8-28.4,28.8
			c-18.3-7.6-24.4-17-23-31.6C202.5,55.9,210.8,41.5,221.1,41.6z"/>
		<path class="st5" d="M132.5,121.5c0,0-1.7,14.3-32.8,12.7C79,132.5,77.8,120,79.5,117.3c1.8-2.7,5.8-6.3,16.5-3.1
			C106.7,117.4,119.9,122.2,132.5,121.5z"/>
		<path d="M186.1,83.5c-15.1,0.3-30.7-22.7-38.5-19.1c-7.8,3.6-16,28.5,0,43.3c16.1,14.7,39.8-3.6,40.6-9.7
			C189.1,92,188.5,83.4,186.1,83.5z"/>
		<path class="st2" d="M186.1,83.5c-15.1,0.3-26.6-20.5-34.4-16.9c-7.8,3.6-16.9,25.4-0.9,40.1c16.1,14.7,36.7-2.7,37.5-8.7
			C189.1,92,188.5,83.4,186.1,83.5z"/>
		<ellipse transform="matrix(0.9599 -0.2804 0.2804 0.9599 -8.1582 62.7585)" cx="215.3" cy="59.9" rx="5.6" ry="4.9"/>
		<path d="M250.6,67.3c0,0-0.2,0.1-0.6,0.2c-0.4,0.2-0.9,0.4-1.5,0.7c-0.6,0.3-1.4,0.6-2.1,1c-0.4,0.2-0.8,0.4-1.2,0.6
			c-0.4,0.2-0.8,0.4-1.2,0.6c-0.4,0.2-0.8,0.4-1.2,0.6c-0.2,0.1-0.4,0.2-0.6,0.3c-0.2,0.1-0.4,0.2-0.6,0.3c-0.4,0.2-0.7,0.4-1.1,0.6
			c-0.3,0.2-0.6,0.4-0.9,0.6c-0.3,0.2-0.5,0.4-0.7,0.6c-0.1,0.1-0.2,0.2-0.3,0.2c-0.1,0.1-0.2,0.2-0.2,0.2c-0.3,0.3-0.5,0.4-0.5,0.4
			s0.2-0.2,0.4-0.5c0.1-0.1,0.1-0.2,0.2-0.2c0.1-0.1,0.2-0.2,0.3-0.3c0.1-0.1,0.2-0.2,0.3-0.3c0.1-0.1,0.3-0.2,0.4-0.3
			c0.3-0.2,0.6-0.4,0.9-0.7c0.2-0.1,0.3-0.2,0.5-0.3c0.2-0.1,0.4-0.2,0.5-0.3c0.2-0.1,0.4-0.2,0.6-0.3c0.2-0.1,0.4-0.2,0.6-0.3
			c0.4-0.2,0.8-0.4,1.2-0.6c0.4-0.2,0.8-0.4,1.2-0.6c0.4-0.2,0.8-0.4,1.2-0.6c0.4-0.2,0.8-0.3,1.1-0.5c0.4-0.1,0.7-0.3,1-0.4
			c0.6-0.3,1.2-0.4,1.6-0.6C250.4,67.3,250.6,67.3,250.6,67.3z"/>
		<path d="M190.7,114.5c0,0-12.4,32.2-18.9,40.6c-13.9,1.5-21-24-13.7-37.8C159.4,114.5,173.2,119.5,190.7,114.5z"/>
		<path class="st6" d="M190.7,114.5c4,1.6-5.7,20.1-12.3,28.5c-13.9,1.5-23.3-13-15.8-26.6C167.7,116.5,186.7,112.9,190.7,114.5z"/>
	</g>
</g>
<g id="coral_x5F_illustration">
</g>
<g id="angelfish">
</g>
<g id="menu">
</g>
</svg>
