<?xml version="1.0" encoding="utf-8"?>
<!-- Generator: Adobe Illustrator 16.0.0, SVG Export Plug-In . SVG Version: 6.00 Build 0)  -->
<!DOCTYPE svg PUBLIC "-//W3C//DTD SVG 1.1//EN" "http://www.w3.org/Graphics/SVG/1.1/DTD/svg11.dtd">
<svg version="1.1" id="Layer_1" xmlns="http://www.w3.org/2000/svg" xmlns:xlink="http://www.w3.org/1999/xlink" x="0px" y="0px"
	 width="389.694px" height="239.223px" viewBox="0 0 389.694 239.223" enable-background="new 0 0 389.694 239.223"
	 xml:space="preserve">
<g>
	<path fill="#FFFFFF" d="M228.79,9.856c0,0-12.977,37.891-37.807,37.807c-24.833-0.088-47.886-8.238-56.025-8.098
		c16.929,10.955,45.597,18.268,45.383,43.875c-0.216,25.603,1.705,44.103,8.171,64.388c6.467,20.287,12.335,35.334,7.635,37.331
		c12.102-5.925,32.517-10.031,39.216-6.563c9.628-9.669,37.819-90.099,37.819-90.099L228.79,9.856z"/>
	<path d="M177.774,59.274c0,0-39.589-31.596-58.255-14.859c-18.663,16.738-20.603,27.441-3.813,51.996L177.774,59.274z"/>
	<path d="M278.614,45.417c0.174-13.188,1.039-43.951-16.663-44.371c-30.066-0.713-43.482,6.395-41.156,49.676
		c-0.23,5.676,30.273,46.428,34.891,63.746L278.614,45.417z"/>
	<path d="M4.592,130.949c5.384,34.067,19.738,45.588,61.073,39.055c8.072-1.277,28.145-13.869,23.805-41.315
		c-4.338-27.445-28.547-50.943-50.129-47.533C11.701,85.522-0.524,98.593,4.592,130.949z"/>
	<path fill="#FFFFFF" d="M60.066,85.401c0,0,41.974,19.188,55.64,11.01c16.93,10.361,17.052,49.2,17.052,49.2l-14.156,7.178
		c0,0-23.162,0.977-52.936,17.215C62.583,120.351,60.066,85.401,60.066,85.401z"/>
	<path fill="#EB7237" d="M22.932,128.051c5.389,34.068,34.662,43.228,42.733,41.953c8.072-1.277,28.145-13.869,23.805-41.315
		c-4.338-27.445-23.584-40.572-29.404-43.287C54.685,86.251,17.822,95.694,22.932,128.051z"/>
	<path d="M197.373,178.018c0,0-7.59,22.265-55.493,20.552c-41.839-2.986-26.306-33.196-23.139-36.955
		c3.166-3.759,9.961-8.345,25.335-1.498C159.448,166.965,178.451,176.75,197.373,178.018z"/>
	<path fill="#EB7237" d="M177.774,59.274c0,0-28.261-23.359-46.923-6.623c-18.664,16.738-19.626,34.441-15.146,43.76
		c10.569,1.84,9.098,48.056,2.896,56.377c18.383,13.214,56.144,34.679,77.546,32.371C231.099,169.08,188.227,64.22,177.774,59.274z"
		/>
	<path d="M294.197,177.923c0,0,11.095,39.946,5.663,42.056c-5.433,2.113-17.452,1.625-29.906-14.201
		C257.503,189.953,294.197,177.923,294.197,177.923z"/>
	<path fill="#ED5933" d="M294.197,177.923c0,0,9.548,30.16,4.116,32.273c-5.432,2.111-17.451,1.625-29.904-14.202
		C255.956,180.168,294.197,177.923,294.197,177.923z"/>
	<path fill="#F47537" d="M308.312,57.269c0,0-19.155-9.381-29.698-11.852c0.174-13.188,2.445-36.861-15.259-37.072
		c-17.707-0.209-36.9,2.072-40.254,37.949c-0.231,5.678,27.967,50.855,32.585,68.174c4.617,17.32-27.888,61.25-20.323,64.128
		c18.481,7.034,66.371,8.859,103.163-11.239C338.48,151.328,308.312,57.269,308.312,57.269z"/>
	<path fill="#FFFFFF" d="M308.312,57.269c0,0,32.438,12.123,37.46,17.932c5.022,5.811-7.246,92.157-7.246,92.157
		s-19.612,9.315-31.878,0.724c-12.263-8.59-34.508-28.011-25.9-63.964C289.354,68.159,308.312,57.269,308.312,57.269z"/>
	<path fill="#F78F3C" d="M345.772,75.2c29.004,3.932,22.365,27.305,38.861,41.246c0.461,2.935,0.461,2.935,0.461,2.935
		s4.869,2.239,1.627,10.273c-3.245,8.033-29.967,34.069-48.195,37.703c-26.066-14.859-33.427-30.256-28.514-51.905
		C315.095,93.046,330.399,73.116,345.772,75.2z"/>
	<path fill="#EA6335" d="M197.373,178.018c0,0-5.261,21.135-51.722,12.687c-30.6-6.445-30.076-25.331-26.909-29.09
		c3.166-3.759,9.961-8.345,25.335-1.498C159.448,166.965,178.451,176.75,197.373,178.018z"/>
	<path d="M285.175,131.297c-22.696-2.428-41.676-40.041-54.086-36.076c-12.409,3.969-29.547,39.768-8.273,64.985
		c21.277,25.219,60.509,2.22,62.865-6.676C288.034,144.633,288.825,131.688,285.175,131.297z"/>
	<path fill="#ED5933" d="M285.175,131.297c-22.696-2.428-36.013-35.925-48.42-31.957c-12.409,3.967-30.323,34.876-9.049,60.094
		c21.278,25.216,55.619,2.991,57.975-5.904C288.034,144.633,288.825,131.688,285.175,131.297z"/>
	<ellipse transform="matrix(0.9877 -0.1561 0.1561 0.9877 -11.7615 53.3266)" cx="333.556" cy="101.528" rx="8.481" ry="7.367"/>
	<path d="M363.215,122.333c0,0,0.347-0.013,0.954-0.031c0.607-0.015,1.478-0.057,2.519-0.1c1.042-0.037,2.257-0.119,3.557-0.193
		c0.646-0.048,1.321-0.085,1.999-0.144c0.682-0.062,1.377-0.109,2.065-0.194c0.691-0.065,1.383-0.13,2.06-0.222
		c0.339-0.042,0.673-0.086,1.006-0.126c0.331-0.053,0.656-0.104,0.977-0.155c0.646-0.094,1.261-0.209,1.848-0.321
		c0.59-0.098,1.133-0.241,1.637-0.362c0.512-0.113,0.965-0.258,1.365-0.383c0.202-0.063,0.393-0.12,0.565-0.175
		c0.179-0.052,0.327-0.132,0.467-0.186c0.562-0.232,0.885-0.364,0.885-0.364s-0.312,0.156-0.857,0.427
		c-0.139,0.063-0.284,0.151-0.457,0.215c-0.173,0.062-0.359,0.132-0.561,0.207c-0.199,0.073-0.411,0.154-0.634,0.236
		c-0.224,0.086-0.47,0.138-0.72,0.214c-0.503,0.142-1.049,0.305-1.636,0.424c-0.293,0.066-0.595,0.132-0.903,0.201
		c-0.305,0.072-0.625,0.113-0.948,0.17c-0.322,0.055-0.649,0.112-0.981,0.167c-0.331,0.045-0.67,0.093-1.011,0.14
		c-0.68,0.099-1.372,0.174-2.067,0.246c-0.692,0.077-1.389,0.114-2.07,0.17c-0.686,0.053-1.36,0.082-2.01,0.122
		c-0.652,0.032-1.284,0.049-1.883,0.064c-0.599,0.006-1.164,0.023-1.686,0.021c-1.045,0.011-1.916-0.016-2.522-0.031
		C363.56,122.352,363.215,122.333,363.215,122.333z"/>
	<path d="M286.104,178.784c0,0-24.756,46.028-36.251,57.374c-21.125-0.425-26.88-40.02-13.345-59.405
		C239.095,172.714,258.862,182.837,286.104,178.784z"/>
	<path fill="#D67B3A" d="M286.104,178.784c5.69,3.215-12.401,29.033-23.896,40.379c-21.124-0.423-32.416-23.947-18.621-42.924
		C251.275,177.28,280.412,175.567,286.104,178.784z"/>
</g>
</svg>
