<?xml version="1.0" encoding="utf-8"?>
<!-- Generator: Adobe Illustrator 16.0.0, SVG Export Plug-In . SVG Version: 6.00 Build 0)  -->
<!DOCTYPE svg PUBLIC "-//W3C//DTD SVG 1.1//EN" "http://www.w3.org/Graphics/SVG/1.1/DTD/svg11.dtd">
<svg version="1.1" id="Layer_1" xmlns="http://www.w3.org/2000/svg" xmlns:xlink="http://www.w3.org/1999/xlink" x="0px" y="0px"
	 width="389.694px" height="239.223px" viewBox="0 0 389.694 239.223" enable-background="new 0 0 389.694 239.223"
	 xml:space="preserve">
<g>
	<path fill="#FFFFFF" d="M162.499,227.301c0,0,12.977-37.891,37.807-37.807c24.833,0.088,47.886,8.238,56.026,8.098
		c-16.929-10.955-45.597-18.268-45.384-43.875c0.216-25.604-1.705-44.103-8.171-64.389c-6.467-20.287-12.335-35.334-7.635-37.331
		c-12.102,5.925-32.517,10.031-39.216,6.563c-9.628,9.669-37.819,90.1-37.819,90.1L162.499,227.301z"/>
	<path d="M213.515,177.883c0,0,39.59,31.596,58.256,14.859c18.663-16.738,20.603-27.441,3.813-51.996L213.515,177.883z"/>
	<path d="M112.675,191.741c-0.174,13.188-1.039,43.951,16.663,44.371c30.066,0.713,43.482-6.395,41.156-49.676
		c0.23-5.676-30.273-46.428-34.891-63.747L112.675,191.741z"/>
	<path d="M386.697,106.208c-5.384-34.067-19.738-45.588-61.073-39.055c-8.072,1.277-28.145,13.869-23.805,41.315
		c4.338,27.446,28.547,50.944,50.129,47.534C379.589,151.635,391.813,138.565,386.697,106.208z"/>
	<path fill="#FFFFFF" d="M331.224,151.756c0,0-41.974-19.188-55.64-11.01c-16.93-10.361-17.052-49.2-17.052-49.2l14.156-7.178
		c0,0,23.162-0.977,52.936-17.215C328.707,116.807,331.224,151.756,331.224,151.756z"/>
	<path fill="#EB7237" d="M368.357,109.106c-5.389-34.068-34.662-43.228-42.733-41.953c-8.072,1.277-28.145,13.869-23.805,41.315
		c4.338,27.446,23.584,40.573,29.404,43.288C336.604,150.907,373.468,141.463,368.357,109.106z"/>
	<path d="M193.916,59.139c0,0,7.59-22.265,55.493-20.552c41.839,2.986,26.306,33.196,23.139,36.955
		c-3.166,3.759-9.961,8.345-25.335,1.498C231.842,70.192,212.838,60.407,193.916,59.139z"/>
	<path fill="#EB7237" d="M213.515,177.883c0,0,28.262,23.359,46.924,6.623c18.664-16.738,19.626-34.441,15.146-43.76
		c-10.569-1.84-9.098-48.057-2.896-56.378c-18.383-13.214-56.145-34.679-77.546-32.371
		C160.19,68.078,203.062,172.938,213.515,177.883z"/>
	<path d="M97.092,59.234c0,0-11.095-39.946-5.663-42.056c5.433-2.113,17.452-1.625,29.906,14.201
		C133.786,47.205,97.092,59.234,97.092,59.234z"/>
	<path fill="#ED5933" d="M97.092,59.234c0,0-9.548-30.16-4.116-32.273c5.432-2.111,17.451-1.625,29.904,14.202
		C135.333,56.989,97.092,59.234,97.092,59.234z"/>
	<path fill="#F47537" d="M82.977,179.889c0,0,19.155,9.381,29.698,11.852c-0.174,13.188-2.445,36.861,15.259,37.072
		c17.707,0.209,36.9-2.072,40.254-37.949c0.231-5.678-27.967-50.855-32.585-68.174c-4.617-17.32,27.888-61.25,20.323-64.128
		C137.444,51.527,89.555,49.702,52.763,69.8C52.809,85.83,82.977,179.889,82.977,179.889z"/>
	<path fill="#FFFFFF" d="M82.977,179.889c0,0-32.438-12.123-37.46-17.932c-5.022-5.811,7.246-92.157,7.246-92.157
		s19.612-9.315,31.878-0.724c12.263,8.59,34.508,28.011,25.9,63.965C101.936,168.999,82.977,179.889,82.977,179.889z"/>
	<path fill="#F78F3C" d="M45.517,161.958c-29.004-3.932-22.365-27.305-38.861-41.247c-0.461-2.935-0.461-2.935-0.461-2.935
		s-4.869-2.239-1.627-10.273C7.812,99.47,34.534,73.434,52.763,69.8c26.066,14.859,33.427,30.256,28.514,51.905
		C76.194,144.112,60.89,164.042,45.517,161.958z"/>
	<path fill="#EA6335" d="M193.916,59.139c0,0,5.261-21.135,51.723-12.687c30.6,6.445,30.076,25.331,26.909,29.09
		c-3.166,3.759-9.961,8.345-25.335,1.498C231.842,70.192,212.838,60.407,193.916,59.139z"/>
	<path d="M106.114,105.86c22.696,2.428,41.676,40.041,54.086,36.076c12.409-3.969,29.547-39.769,8.273-64.985
		c-21.277-25.219-60.509-2.22-62.865,6.676C103.255,92.524,102.464,105.469,106.114,105.86z"/>
	<path fill="#ED5933" d="M106.114,105.86c22.696,2.428,36.013,35.926,48.42,31.957c12.409-3.967,30.323-34.877,9.049-60.095
		c-21.278-25.216-55.619-2.991-57.975,5.904C103.255,92.524,102.464,105.469,106.114,105.86z"/>
	<path d="M6.173,117.781c0,0,0.347-0.013,0.954-0.031c0.607-0.015,1.478-0.057,2.519-0.1c1.042-0.037,2.257-0.119,3.557-0.193
		c0.646-0.048,1.321-0.085,1.999-0.144c0.682-0.062,1.377-0.109,2.065-0.194c0.691-0.065,1.383-0.13,2.06-0.222
		c0.339-0.042,0.673-0.086,1.006-0.126c0.331-0.053,0.656-0.104,0.977-0.155c0.646-0.094,1.261-0.209,1.848-0.321
		c0.59-0.098,1.133-0.241,1.637-0.362c0.512-0.113,0.965-0.258,1.365-0.383c0.202-0.063,0.393-0.12,0.565-0.175
		c0.179-0.052,0.327-0.132,0.467-0.186c0.562-0.232,0.885-0.364,0.885-0.364s-0.312,0.156-0.857,0.427
		c-0.139,0.063-0.284,0.151-0.457,0.215c-0.173,0.062-0.359,0.132-0.561,0.207c-0.199,0.073-0.411,0.154-0.634,0.236
		c-0.224,0.086-0.47,0.138-0.72,0.214c-0.503,0.142-1.049,0.305-1.636,0.424c-0.293,0.066-0.595,0.132-0.903,0.201
		c-0.305,0.072-0.625,0.113-0.948,0.17c-0.322,0.055-0.649,0.112-0.981,0.167c-0.331,0.045-0.67,0.093-1.011,0.14
		c-0.68,0.099-1.372,0.174-2.067,0.246c-0.692,0.077-1.389,0.114-2.07,0.17c-0.686,0.053-1.36,0.082-2.01,0.122
		c-0.652,0.032-1.284,0.049-1.883,0.064c-0.599,0.006-1.164,0.023-1.686,0.021c-1.045,0.011-1.916-0.016-2.522-0.031
		C6.518,117.8,6.173,117.781,6.173,117.781z"/>
	<path d="M105.185,58.374c0,0,24.756-46.028,36.251-57.374c21.125,0.425,26.88,40.02,13.345,59.405
		C152.194,64.443,132.427,54.32,105.185,58.374z"/>
	<path fill="#D67B3A" d="M105.185,58.374c-5.69-3.215,12.401-29.033,23.896-40.379c21.124,0.423,32.416,23.947,18.621,42.924
		C140.014,59.877,110.877,61.59,105.185,58.374z"/>
	<g>
		<line x1="51.061" y1="127.571" x2="64.406" y2="143.687"/>
		<path d="M51.061,127.571c0,0,0.309,0.169,0.802,0.503c0.497,0.332,1.176,0.83,1.95,1.463c1.546,1.267,3.407,3.122,5.076,5.135
			c1.67,2.014,3.147,4.187,4.103,5.942c0.477,0.878,0.839,1.64,1.072,2.189c0.236,0.548,0.344,0.883,0.344,0.883
			s-0.31-0.168-0.803-0.502c-0.497-0.331-1.178-0.829-1.952-1.462c-1.547-1.266-3.406-3.122-5.073-5.138
			c-1.667-2.016-3.143-4.189-4.099-5.944c-0.478-0.878-0.841-1.639-1.074-2.188C51.169,127.906,51.061,127.571,51.061,127.571z"/>
	</g>
	<g>
		<line x1="65.792" y1="128.957" x2="49.675" y2="142.301"/>
		<path d="M65.792,128.957c0,0-0.169,0.309-0.503,0.802c-0.332,0.496-0.83,1.176-1.463,1.95c-1.267,1.546-3.122,3.406-5.135,5.075
			c-2.014,1.67-4.186,3.147-5.942,4.103c-0.878,0.477-1.64,0.839-2.19,1.071c-0.547,0.236-0.883,0.344-0.883,0.344
			s0.168-0.31,0.502-0.804c0.332-0.497,0.829-1.177,1.462-1.951c1.266-1.547,3.122-3.406,5.138-5.072
			c2.016-1.667,4.189-3.143,5.945-4.099c0.878-0.478,1.639-0.841,2.188-1.074C65.457,129.065,65.792,128.957,65.792,128.957z"/>
	</g>
</g>
</svg>
