<?xml version="1.0" encoding="utf-8"?>
<!-- Generator: Adobe Illustrator 16.0.0, SVG Export Plug-In . SVG Version: 6.00 Build 0)  -->
<!DOCTYPE svg PUBLIC "-//W3C//DTD SVG 1.1//EN" "http://www.w3.org/Graphics/SVG/1.1/DTD/svg11.dtd">
<svg version="1.1" id="Layer_1" xmlns="http://www.w3.org/2000/svg" xmlns:xlink="http://www.w3.org/1999/xlink" x="0px" y="0px"
	 width="487.056px" height="597.164px" viewBox="56.472 -63.5 487.056 597.164"
	 enable-background="new 56.472 -63.5 487.056 597.164" xml:space="preserve">
<g>
	<path fill="#D1D1D1" d="M510.354,42.13l-33.098,384.494c0,0-17.604,107.04-188.021,107.04
		c-170.416,0-166.895-106.336-166.895-106.336L69.526,45.652L510.354,42.13z"/>
	<path fill="#DDDDDC" d="M521.623,3.4v38.202c0,0-8.452,57.568-232.388,57.568C65.3,99.17,56.851,41.602,56.851,41.602V3.4H521.623z
		"/>
	<path fill="#DDDDDC" d="M496.268,83.676l19.72,3.522v41.548l-23.945,4.929C492.042,133.675,481.157,111.047,496.268,83.676z"/>
	<ellipse fill="#FFFFFF" cx="289.237" cy="3.4" rx="232.386" ry="66.899"/>
	<path fill="#474748" d="M91.358,203.428c0,0,91.333,37.538,213.794,37.538c122.458,0,192.172-45.815,192.172-45.815
		l-12.568,144.337c0,0-43.271,75.552-179.604,75.552c-136.335,0-192.554-58.112-192.554-58.112L91.358,203.428z"/>
	<ellipse fill="#D1D1D1" cx="515.989" cy="107.971" rx="5.634" ry="20.775"/>
	<path fill="none" d="M112.599,319.216c0,0,59.389,57.985,181.744,57.985c122.352,0,190.414-75.425,190.414-75.425"/>
	<text transform="matrix(0.9272 0.3744 -0.3744 0.9272 129.9336 337.6221)"><tspan x="0" y="0" fill="#FFFFFF" font-family="'Sansita-Regular'" font-size="135.2062">w</tspan><tspan x="111.615" y="-5.73" fill="#FFFFFF" font-family="'Sansita-Regular'" font-size="135.2062" rotate="-18.143">a</tspan><tspan x="186.369" y="-32.651" fill="#FFFFFF" font-family="'Sansita-Regular'" font-size="135.2062" rotate="-29.892">t</tspan><tspan x="231.384" y="-58.736" fill="#FFFFFF" font-family="'Sansita-Regular'" font-size="135.2062" rotate="-42.995">e</tspan><tspan x="286.358" y="-113.532" fill="#FFFFFF" font-family="'Sansita-Regular'" font-size="135.2062" rotate="-58.486">r</tspan></text>
	<path fill="#B2B2B2" d="M515.987,101.988c0,0,28.344,5.142,25.878,19.542c-6.827,25.359-80.804,219.885-290.656,249.462
		c-8.45,9.858-39.435,12.677-61.265,2.817c-21.831-9.858-76.758-58.449-76.758-58.449S40.681,235.69,79.75,119.545
		c2.075,14.988,3.822,27.616,3.822,27.616s-21.088,87.217,35.952,161.158c24.647,20.423,85.208,54.928,85.208,54.928
		s29.576,7.041,44.364-2.112c50.804-4.267,206.33-44.363,275.343-240.131l-8.452-2.203
		C515.987,118.8,509.912,112.112,515.987,101.988z"/>
	<path fill="#939292" d="M224.846,376.349c-4.803,8.06-16.717,9.804-26.608,3.908l-85.07-50.746
		c-9.891-5.896-14.013-17.209-9.211-25.269l0.968-1.614c4.804-8.06,16.718-9.802,26.607-3.906l85.07,50.746
		c9.891,5.896,14.013,17.21,9.21,25.267L224.846,376.349z"/>
</g>
</svg>
