<?xml version="1.0" encoding="utf-8"?>
<!-- Generator: Adobe Illustrator 16.0.0, SVG Export Plug-In . SVG Version: 6.00 Build 0)  -->
<!DOCTYPE svg PUBLIC "-//W3C//DTD SVG 1.1//EN" "http://www.w3.org/Graphics/SVG/1.1/DTD/svg11.dtd">
<svg version="1.1" id="Layer_1" xmlns="http://www.w3.org/2000/svg" xmlns:xlink="http://www.w3.org/1999/xlink" x="0px" y="0px"
	 width="587.473px" height="389.733px" viewBox="5.688 0 587.473 389.733" enable-background="new 5.688 0 587.473 389.733"
	 xml:space="preserve">
<g>
	<path fill="#2B2B2D" d="M137.453,210.565c0,84.007-33.661,152.107-75.182,152.107S5.688,308.211,5.688,224.204
		c0-84.006,33.66-152.105,75.182-152.105C122.391,72.098,137.453,126.559,137.453,210.565z"/>
	<ellipse fill="#19191E" cx="108.493" cy="230.905" rx="45.463" ry="88.738"/>
	<path fill="#28272B" d="M144.225,73.753c0,0-27.466-1.852-38.213,29.56c-10.747,31.412-15.923,66.914,6.647,132.671
		c32.203,93.821,46.996,126.885,77.623,147.549c30.627,20.664,62.038-16.945,62.038-16.945s18.833,43.107,270.302-46.705
		c34.718-12.398,124.817-138.042,24.799-237.235C460.264-3.79,412.685,1.64,301.918,21.479
		C191.152,41.317,165.029,95.556,165.029,95.556L144.225,73.753z"/>
	<path fill="#35343A" d="M308.529,162.003c28.932-20.665,129.362-33.891,152.509-15.705c23.146,18.185-20.253,17.36-50.836,15.705
		c-30.584-1.654-65.303,10.224-79.354,15.858C316.796,183.495,296.956,170.271,308.529,162.003z"/>
	<path fill="#35343A" d="M317.622,199.499c12.747-16.509,121.925-35.124,151.683-22.877s-49.183,21.753-62.407,26.713
		c-13.228,4.959-80.181,23.971-84.314,19.012C318.448,217.386,311.01,208.064,317.622,199.499z"/>
	<path fill="#35343A" d="M310.184,147.124c0,0,32.237-22.202,149.615-17.243c7.411,0,15.705-23.26-14.053-22.434
		c-29.758,0.826-126.47,12.373-135.562,19.826C301.09,134.725,301.918,143.818,310.184,147.124z"/>
	<path fill="#35343A" d="M315.827,75.229c0,0,29.772-22.873,143.887,5.062c7.268,1.457,26.17-12.28-3.169-17.318
		c-29.341-5.04-126.435-12.728-136.816-7.208C309.348,61.284,308.373,70.362,315.827,75.229z"/>
	<path fill="#35343A" d="M305.049,90.088c21.897-19.301,136.565-13.226,150.616,0c14.053,13.226-46.974,7.027-69.362,8.68
		c-22.391,1.653-71.508,16.532-76.294,9.919C305.225,102.074,296.609,97.528,305.049,90.088z"/>
	<path fill="#35343A" d="M321.755,44.212c0,0,102.5-1.24,144.657,11.986c13.225,4.133,25.625,0.659-7.439-9.177
		c-33.064-9.835-125.646-16.861-132.258-11.902C320.103,40.079,319.947,41.937,321.755,44.212z"/>
	<path fill="#35343A" d="M484.019,38.838c-8.103-3.927-94.945-22.319-126.719-19.839c-17.062,1.332-15.188,6.665-7.438,6.2
		c7.245-0.435,55.466,1.498,134.158,19.554C494.103,48.757,492.122,42.764,484.019,38.838z"/>
	<path fill="#35343A" d="M328.162,235.364c13.136-13.138,136.082-38.438,144.915-29.138c8.834,9.3-8.525,21.078-38.283,26.038
		c-29.757,4.959-82.306,25.549-97.952,21.077C328.162,250.862,321.962,241.563,328.162,235.364z"/>
	<path fill="#35343A" d="M337.461,266.981c14.214-11.166,133.388-35.958,145.118-29.138c11.729,6.818-92.027,33.242-115.36,40.297
		C340.561,286.201,328.781,273.8,337.461,266.981z"/>
	<path fill="#35343A" d="M356.68,299.839c14.414-17.617,126.567-47.736,133.339-40.298c6.771,7.439-112.88,52.697-122.18,50.216
		S351.101,306.658,356.68,299.839z"/>
	<path fill="#35343A" d="M373.419,322.777c0,0,121.319-46.499,127.615-41.537c6.295,4.96-109.566,51.455-115.801,49.595
		C378.998,328.977,369.698,328.977,373.419,322.777z"/>
	<path fill="#35343A" d="M387.204,341.996c4.503-4.496,122.14-44.328,125.085-43.397c2.944,0.93-81.069,40.297-107.8,49.596
		C377.758,357.494,382.7,346.49,387.204,341.996z"/>
	<path fill="#35343A" d="M342.421,355.016c0,0-53.936,2.479-60.755,0c-6.82-2.479,53.316-12.399,53.316-12.399
		S340.561,350.676,342.421,355.016z"/>
	<path fill="#35343A" d="M329.372,333.252c0,0-65.686,14.324-72.505,9.363c-6.82-4.959,59.516-22.318,64.476-19.838
		C326.302,325.258,329.372,333.252,329.372,333.252z"/>
	<path fill="#35343A" d="M311.752,314.717c0,0-37.526,10.025-87.123,10.283c39.677-17.102,80.419-21.441,80.419-21.441
		S310.22,309.758,311.752,314.717z"/>
	<path fill="#35343A" d="M296.544,289.919c0,0-83.074,19.838-93.613,13.64c-10.54-6.201,88.07-26.039,88.07-26.039L296.544,289.919z
		"/>
	<path fill="#35343A" d="M284.145,259.32c0,0-80.754,18.82-102.062,15.102c-21.309-3.721,90.903-26.039,94.624-26.659
		C280.425,247.143,284.145,259.32,284.145,259.32z"/>
	<path fill="#35343A" d="M272.986,229.096c0,0-84.272,15.565-93.592,11.848c-9.32-3.721,93.592-26.659,93.592-26.659V229.096z"/>
	<path fill="#35343A" d="M263.687,195.066c0,0-98.014,26.039-105.423,19.218c-7.409-6.819,91.784-45.753,106.043-40.545
		L263.687,195.066z"/>
	<path fill="#35343A" d="M360.998,12.005c0,0-53.825-4.785-61,75.809c-7.174,80.594-8.998,157.469,85.235,273.44
		c0,0,4.924,9.26-9.335,9.26c-14.26,0-22.145,2.48-46.497-32.238c-24.354-34.717-84.313-89.582-65.715-264.254
		C277.326-7.039,355.408-0.859,360.998,12.005z"/>
	<path fill="#35343A" d="M158.264,165.929c0,0,93.431-41.539,101.906-30.998C268.646,145.47,261.766,150.43,158.264,165.929z"/>
	<path fill="#35343A" d="M262.784,116.332c0,0-85.271,20.13-88.371,16.885c-3.1-3.245,87.123-42.923,93.778-34.863
		C274.846,106.413,262.784,116.332,262.784,116.332z"/>
	<path fill="#35343A" d="M262.784,83.087c0,0-57.993,15.59-63.573,14.188s66.045-31.16,68.98-26.2S262.784,83.087,262.784,83.087z"
		/>
	<path fill="#35343A" d="M268.191,56.021l-66.048,25.594c0,0,56.584-35.634,70.843-31.146
		C287.245,54.957,268.191,56.021,268.191,56.021z"/>
	<path fill="#35343A" d="M224.629,56.816c0,0,44.067-23.915,53.651-21.256c9.584,2.658,0,8.237,0,8.237
		S258.646,46.621,224.629,56.816z"/>
	<path fill="#35343A" d="M575.03,188.755c0,44.864-14.167,90.908-38.177,87.936c-24.008-2.972-44.984-64.269-44.984-115.312
		c0-51.044,11.092-75.344,35.099-72.372C550.979,91.978,575.03,143.891,575.03,188.755z"/>
	<path fill="#252428" d="M182.083,63.501c0,0-36.43-12.264-55.837,38.985c-19.407,51.249,4.96,91.34,4.96,91.34l1.777-13.485
		c-1.347-24.745,25.281-72.069,25.281-72.069L182.083,63.501z"/>
	<path fill="#323135" d="M132.982,180.341c0,0,16.868-75.788,56.414-110.347C180.097,42.099,106.945,109.669,132.982,180.341z"/>
</g>
</svg>
