<?xml version="1.0" encoding="utf-8"?>
<!-- Generator: Adobe Illustrator 16.0.0, SVG Export Plug-In . SVG Version: 6.00 Build 0)  -->
<!DOCTYPE svg PUBLIC "-//W3C//DTD SVG 1.1//EN" "http://www.w3.org/Graphics/SVG/1.1/DTD/svg11.dtd">
<svg version="1.1" id="Layer_1" xmlns="http://www.w3.org/2000/svg" xmlns:xlink="http://www.w3.org/1999/xlink" x="0px" y="0px"
	 width="600px" height="395.225px" viewBox="0 0 600 395.225" enable-background="new 0 0 600 395.225" xml:space="preserve">
<g>
	<path fill="#171919" stroke="#000000" stroke-miterlimit="10" d="M310.679,226.767c0,0-96.684,38.931-147.157,38.931
		s-32.68,82.821-32.68,90.604c0,7.785-75.62-23.352-75.62-23.352l-5.56-95.009l67.835-42.734l89.355-26.476L310.679,226.767z"/>
	<path fill="#232626" stroke="#000000" stroke-miterlimit="10" d="M117.498,163.971c0,0-75.62,38.903-78.956,62.796
		c-3.336,23.894,0,106.184,0,106.184h23.353c0,0,0-51.152,0-78.955c0-27.801,151.062-65.85,151.062-65.85L117.498,163.971z"/>
	<path fill="#47494A" stroke="#000000" stroke-miterlimit="10" d="M71.903,265.277c8.896-7.943,51.578,10.962,50.255,20.971
		c-1.325,10.009,4.701,57.822,0.02,57.822c-4.681,0-50.275-10.008-50.275-17.79C71.903,318.497,63.007,273.219,71.903,265.277z"/>
	<polygon fill="#4E5554" stroke="#000000" stroke-miterlimit="10" points="63.007,314.047 180.17,350.744 180.17,389.666 
		63.007,395.225 	"/>
	<polygon fill="#1D1E1E" stroke="#000000" stroke-miterlimit="10" points="15.188,332.951 63.007,314.047 63.007,395.225 
		15.188,388.553 	"/>
	<path fill="#303435" stroke="#000000" stroke-miterlimit="10" d="M197.661,5.442c0,0,376.898,136.922,398.583,170.282
		c21.686,33.36-90.07,108.419-160.128,95.077C366.062,257.456,13.869,149.028,7.44,125.684
		C1.011,102.339,197.661,5.442,197.661,5.442z"/>
	<path fill="#232626" stroke="#000000" stroke-miterlimit="10" d="M54.145,38.948C114.651,0.291,199.26-11.093,207.6,15.596
		c8.341,26.688-101.748,33.36-130.104,68.388c-28.356,35.028-58.381,63.385-70.056,41.7C-4.235,104-5.904,77.311,54.145,38.948z"/>
	<path fill="#47494A" stroke="#000000" stroke-miterlimit="10" d="M218.443,57.163c15.821-2.224,333.87,129.34,342.764,145.294
		c8.896,15.956-103.604,65.998-119.637,62.661c-16.033-3.336-354.098-116.379-357.435-129.361
		C80.8,122.775,202.623,59.387,218.443,57.163z"/>
	<path fill="#5C86BF" stroke="#000000" stroke-miterlimit="10" d="M226.336,90.151c-2.194,5.117-10.493,6.473-18.536,3.025
		c-8.045-3.446-12.789-10.391-10.596-15.51c2.193-5.117,10.492-6.472,18.536-3.023C223.785,78.088,228.528,85.032,226.336,90.151z"
		/>
	
		<ellipse transform="matrix(0.3939 -0.9192 0.9192 0.3939 59.6498 294.5294)" fill="#FFFFFF" stroke="#000000" stroke-miterlimit="10" cx="253.146" cy="102.036" rx="10.082" ry="15.848"/>
	
		<ellipse transform="matrix(0.3939 -0.9192 0.9192 0.3939 71.6136 343.7748)" fill="#5C86BF" stroke="#000000" stroke-miterlimit="10" cx="296.469" cy="117.587" rx="10.082" ry="15.846"/>
	
		<ellipse transform="matrix(0.3939 -0.9192 0.9192 0.3939 81.0205 389.3962)" fill="#FFFFFF" stroke="#000000" stroke-miterlimit="10" cx="335.762" cy="133.266" rx="10.082" ry="15.848"/>
	
		<ellipse transform="matrix(0.3939 -0.9191 0.9191 0.3939 90.9171 435.5962)" fill="#5C86BF" stroke="#000000" stroke-miterlimit="10" cx="375.754" cy="148.859" rx="10.081" ry="15.846"/>
	<path fill="#FFFFFF" stroke="#000000" stroke-miterlimit="10" d="M430.98,170.211c-2.195,5.12-10.493,6.472-18.537,3.026
		c-8.045-3.447-12.788-10.391-10.599-15.508c2.194-5.12,10.493-6.472,18.539-3.025C428.428,158.15,433.171,165.094,430.98,170.211z"
		/>
	
		<ellipse transform="matrix(0.3939 -0.9191 0.9191 0.3939 107.3839 522.6292)" fill="#5C86BF" stroke="#000000" stroke-miterlimit="10" cx="449.984" cy="179.889" rx="10.083" ry="15.846"/>
	
		<ellipse transform="matrix(0.3938 -0.9192 0.9192 0.3938 108.7051 564.635)" fill="#FFFFFF" stroke="#000000" stroke-miterlimit="10" cx="482.448" cy="199.899" rx="10.081" ry="15.847"/>
	
		<ellipse transform="matrix(0.3938 -0.9192 0.9192 0.3938 6.1703 222.2665)" fill="#5C86BF" stroke="#000000" stroke-miterlimit="10" cx="171.6" cy="106.455" rx="10.082" ry="15.847"/>
	
		<ellipse transform="matrix(0.3938 -0.9192 0.9192 0.3938 14.593 271.2793)" fill="#FFFFFF" stroke="#000000" stroke-miterlimit="10" cx="212.967" cy="124.576" rx="10.081" ry="15.847"/>
	
		<ellipse transform="matrix(0.3938 -0.9192 0.9192 0.3938 26.5712 320.5219)" fill="#5C86BF" stroke="#000000" stroke-miterlimit="10" cx="256.296" cy="140.115" rx="10.081" ry="15.847"/>
	
		<ellipse transform="matrix(0.3938 -0.9192 0.9192 0.3938 35.9911 366.152)" fill="#FFFFFF" stroke="#000000" stroke-miterlimit="10" cx="295.591" cy="155.79" rx="10.081" ry="15.847"/>
	
		<ellipse transform="matrix(0.3939 -0.9192 0.9192 0.3939 45.8405 412.389)" fill="#5C86BF" stroke="#000000" stroke-miterlimit="10" cx="335.601" cy="171.438" rx="10.081" ry="15.846"/>
	
		<ellipse transform="matrix(0.3938 -0.9192 0.9192 0.3938 56.6523 458.9133)" fill="#FFFFFF" stroke="#000000" stroke-miterlimit="10" cx="376.252" cy="186.506" rx="10.081" ry="15.846"/>
	
		<ellipse transform="matrix(0.3938 -0.9192 0.9192 0.3938 62.3577 499.4519)" fill="#5C86BF" stroke="#000000" stroke-miterlimit="10" cx="409.833" cy="202.45" rx="10.08" ry="15.848"/>
	
		<ellipse transform="matrix(0.3939 -0.9192 0.9192 0.3939 71.4463 542.2991)" fill="#FFFFFF" stroke="#000000" stroke-miterlimit="10" cx="446.911" cy="216.977" rx="10.082" ry="15.847"/>
	
		<ellipse transform="matrix(0.3939 -0.9192 0.9192 0.3939 -32.923 202.7333)" fill="#5C86BF" stroke="#000000" stroke-miterlimit="10" cx="137.258" cy="126.33" rx="10.082" ry="15.848"/>
	
		<ellipse transform="matrix(0.3939 -0.9192 0.9192 0.3939 -24.5107 251.7386)" fill="#FFFFFF" stroke="#000000" stroke-miterlimit="10" cx="178.624" cy="144.454" rx="10.081" ry="15.848"/>
	
		<ellipse transform="matrix(0.3938 -0.9192 0.9192 0.3938 -12.4983 301.0068)" fill="#5C86BF" stroke="#000000" stroke-miterlimit="10" cx="221.965" cy="159.979" rx="10.081" ry="15.847"/>
	<path fill="#FFFFFF" stroke="#000000" stroke-miterlimit="10" d="M275.812,181.903c-2.194,5.117-10.493,6.472-18.536,3.025
		c-8.045-3.447-12.789-10.391-10.596-15.51c2.193-5.117,10.493-6.472,18.537-3.023C273.261,169.839,278.004,176.783,275.812,181.903
		z"/>
	
		<ellipse transform="matrix(0.3939 -0.9192 0.9192 0.3939 6.7686 392.8657)" fill="#5C86BF" stroke="#000000" stroke-miterlimit="10" cx="301.262" cy="191.301" rx="10.081" ry="15.847"/>
	
		<ellipse transform="matrix(0.3938 -0.9192 0.9192 0.3938 17.5827 439.4017)" fill="#FFFFFF" stroke="#000000" stroke-miterlimit="10" cx="341.921" cy="206.371" rx="10.081" ry="15.847"/>
	
		<ellipse transform="matrix(0.3938 -0.9192 0.9192 0.3938 23.2946 479.9325)" fill="#5C86BF" stroke="#000000" stroke-miterlimit="10" cx="375.509" cy="222.305" rx="10.081" ry="15.847"/>
	
		<ellipse transform="matrix(0.3939 -0.9192 0.9192 0.3939 31.3384 523.4522)" fill="#FFFFFF" stroke="#000000" stroke-miterlimit="10" cx="412.56" cy="237.965" rx="10.081" ry="15.846"/>
</g>
</svg>
