<?xml version="1.0" encoding="utf-8"?>
<!-- Generator: Adobe Illustrator 16.0.0, SVG Export Plug-In . SVG Version: 6.00 Build 0)  -->
<!DOCTYPE svg PUBLIC "-//W3C//DTD SVG 1.1//EN" "http://www.w3.org/Graphics/SVG/1.1/DTD/svg11.dtd">
<svg version="1.1" id="Layer_1" xmlns="http://www.w3.org/2000/svg" xmlns:xlink="http://www.w3.org/1999/xlink" x="0px" y="0px"
	 width="598.551px" height="309.74px" viewBox="0 0 598.551 309.74" enable-background="new 0 0 598.551 309.74"
	 xml:space="preserve">
<path fill="#DDDCC5" d="M253.881,106.227c125.77,0,176.082,41.688,285.746,74.978c109.665,33.292,47.529,116.415-34.719,127.261
	c-82.249,10.847-219.819-51.819-316.754-26.36c-96.935,25.457-245.376-11.75-165.281-80.29
	C102.97,133.275,128.11,106.227,253.881,106.227z"/>
<path fill="#946D68" d="M215.149,227.125c-9.277,12.757-29.572,24.064-29.572,24.064l-46.968,11.11l-26.092-11.78l-35.951-34.701
	l-16.38-25.513c0,0,34.935-42.909,41.894-66.103c6.958-23.194,46.388-25.513,64.943-18.555
	c-5.799-22.034,37.109-52.186,61.464-30.152c24.354,22.035,59.144,63.783,60.303,106.692c1.16,42.908-44.068,58.572-44.068,58.572
	l-15.076-9.866L215.149,227.125z"/>
<path fill="#BF7C73" d="M246.461,3.015c0,0,13.336-6.378,38.849-0.58c25.514,5.798,38.27,45.808,15.077,52.766
	c-23.194,6.958-53.926,41.75-53.926,41.75l-59.145,22.034h-33.63L136.29,100.43c0,0-0.123-34.791,12.116-39.43
	c12.238-4.638,33.112-24.353,45.869-24.353C207.031,36.646,246.461,3.015,246.461,3.015z"/>
<path fill="#BC918B" d="M343.875,15.771c3.479-12.757,30.152-8.118,37.11,0c2.318-12.757,24.354-10.437,30.151,0
	S399.54,45.923,399.54,45.923l12.779,15.076c0,0,23.17,2.32,28.969,15.077c5.798,12.756,13.917,20.875,13.917,20.875l-39.431,34.791
	l-40.589-5.799c0,0-11.598,4.639-18.556-6.958c-6.958-11.597-35.95-36.677-35.95-36.677l-16.248-33.331
	c0,0-8.887-33.205,8.319-36.684C329.959,8.813,343.875,15.771,343.875,15.771z"/>
<path fill="#AF8076" d="M234.864,168.851l23.194-62.624l9.712-13.916c0,0-15.8-30.152,0-37.11
	c15.801-6.958,58.269,1.357,69.147,27.106s32.472,56.392,32.472,56.392l20.874,30.152l-46.388,52.186
	c0,0-42.908,26.673-59.144,17.396s-39.429-35.95-39.429-35.95L234.864,168.851z"/>
<path fill="#9B6D67" d="M98.217,200.18c0.088,0.312-0.094,0.637-0.406,0.725l-4.129,1.161c-0.312,0.088-0.636-0.094-0.725-0.407
	l-2.015-7.167c-0.088-0.312,0.094-0.637,0.406-0.726l4.129-1.16c0.312-0.088,0.636,0.094,0.725,0.406L98.217,200.18z"/>
<path fill="#7F5B57" d="M168.02,208.496c0,0,15.657-15.808,21.747-11.16c6.089,4.647,17.867,4.751,17.867,4.751l-5.689,17.293
	c0,0-18.268,15.253-33.925,11.106c-15.657-4.147-10.438-12.846-10.438-12.846L168.02,208.496z"/>
<path fill="#A07370" d="M377.266,88.873c0,0-19.386-10.919-16.515-18.021c2.872-7.101-0.142-18.488-0.142-18.488l18.181,0.914
	c0,0,19.541,13.583,19.683,29.779c0.143,16.196-9.628,13.464-9.628,13.464L377.266,88.873z"/>
<path fill="#9B6D67" d="M257.44,158.118l4.938,3.276c0,0-1.125,10.116,0,13.279c1.126,3.162,1.185,7.452,1.185,7.452l-5.182,6.433
	c0,0-4.376-11.139-4.511-15.219c-0.134-4.081-2.102-10.515-2.102-10.515l3.129-6.223L257.44,158.118z"/>
<path fill="#7F5B57" d="M166.822,178.781l-24.624-3.986c0,0,5.614-12.31,0-16.158c-5.615-3.849-5.908-9.069-5.908-9.069l25.84-7.828
	c0,0,21.823,13.554,22.495,18.521c0.671,4.965,10.482,12.794,10.482,12.794l-15.604,7.572L166.822,178.781z"/>
<path fill="#99605D" d="M259.769,52.447c0,0-24.343,17.44-28.524,14.706c-4.181-2.735-27.834,8.021-27.834,8.021l-15.763,4.989
	c0,0-29.459,0.602-16.261-7.766c13.198-8.368,27.469-23.911,34.364-31.107c6.895-7.196,33.549-0.309,33.549-0.309l22.127-2.045
	l5.134,6.414C266.562,45.351,265.965,40.929,259.769,52.447z"/>
<path fill="#9B6D67" d="M337.77,124.998c3.987-1.473,10.229-0.975,10.229-0.975l12.192,4.532l4.09,6.542l2.872,13.156l-0.143,8.169
	c0,0-14.249,4.398-19.275,8.558c-5.028,4.161-14.218-1.215-17.336-5.549c-1.995,5.807-16.124,6.153-18.29-2.429
	s-3.726-23.145,2.432-32.938c6.155-9.794,18.638-6.544,18.638-6.544l1.905,4.466L337.77,124.998z"/>
<path fill="#A3726C" d="M395.431,98.067c0,0,24.8-5.764,54.898-5.059s59.799,14.626,56.013,38.934s-27.608,74.022-27.608,74.022
	l-58.011,31.623l-4.342,14.216c0,0-31.058,2.433-37.409-4.561c-6.353-6.994-34.26-22.793-34.26-22.793l-14.81-70.637l24.256-39.717
	L395.431,98.067z"/>
<path fill="#895D59" d="M444.149,120.83l10.758,3.984l2.391,1.668c0,0,5.18-2.714,6.374,0c1.196,2.714-0.231,10.009-4.655,11.878
	c-4.424,1.868-9.688,5.578-9.688,5.578l-5.18,3.585l-8.965-7.968c0,0-4.583-7.371-2.987-10.16c1.593-2.789,6.176-6.774,6.176-6.774
	L444.149,120.83z"/>
<path fill="#895D59" d="M395.938,185.266c4.173-1.212,10.899-0.267,10.899-0.267l13.396,5.453l19.343-1.777l4.006,13.54l0.424,8.271
	c0,0-20.77,15.052-25.869,18.916c-5.1,3.863-24.027,3.565-27.68-1.048c-1.73,5.747-16.858-3.597-19.785-12.449
	c-2.928-8.853-11.423-12.129-5.511-21.625c5.912-9.497,13.729-16.919,13.729-16.919l13.954,4.662L395.938,185.266z"/>
</svg>
