<?xml version="1.0" encoding="utf-8"?>
<!-- Generator: Adobe Illustrator 16.0.0, SVG Export Plug-In . SVG Version: 6.00 Build 0)  -->
<!DOCTYPE svg PUBLIC "-//W3C//DTD SVG 1.1//EN" "http://www.w3.org/Graphics/SVG/1.1/DTD/svg11.dtd">
<svg version="1.1" id="Layer_1" xmlns="http://www.w3.org/2000/svg" xmlns:xlink="http://www.w3.org/1999/xlink" x="0px" y="0px"
	 width="310.48px" height="598.341px" viewBox="144.76 0 310.48 598.341" enable-background="new 144.76 0 310.48 598.341"
	 xml:space="preserve">
<g>
	<polygon fill="#383838" points="372.639,411.818 372.639,468.358 246.284,534.334 241.859,447.217 	"/>
	<path fill="#606766" d="M144.76,440.361v116.003c0,0,36.134,45.23,71.533,41.79c35.398-3.441,100.296-46.215,100.296-46.215
		V430.993L144.76,440.361z"/>
	<polygon fill="#494949" points="316.59,422.144 316.59,497.623 246.284,534.334 241.859,447.217 	"/>
	<polygon fill="#606161" points="246.284,534.334 199.247,514.668 199.247,437.392 246.284,434.826 	"/>
	<ellipse fill="#252828" cx="417.547" cy="298.414" rx="37.693" ry="49.985"/>
	<path fill="#222322" d="M418.84,359.703c2.312-2.128,0-201.85,0-201.85l-52.428,3.388l6.557,219.276
		C372.969,380.518,416.527,361.831,418.84,359.703z"/>
	<path fill="#454545" d="M377.555,134.965c11.802-2.404,35.398,10.87,40.808,21.195c5.409,10.325-36.873,24.583-36.873,24.583
		l-40.316-25.074C341.172,155.668,365.756,137.366,377.555,134.965z"/>
	<path fill="#303030" d="M394.842,402.915c0-8.112,0-275.816,0-275.816L144.76,161.76v278.603c0,0,47.604,38.351,98.409,34.089
		C293.974,470.188,394.842,411.025,394.842,402.915z"/>
	<path fill="#606766" d="M394.842,170.172c0-8.11,0-138.154,0-138.154L144.76,47.013v146.842c0,0,47.604,32.449,98.409,28.188
		C293.974,217.781,394.842,178.284,394.842,170.172z"/>
	<path fill="#383838" d="M253.004,147.345c58.309-13.238,119.96,0.657,138.972,19.666c19.013,19.009-60.157,39.374-127.83,53.755
		c-52.443,11.143-87.188-0.657-108.164-14.423C135.008,192.577,131.731,174.877,253.004,147.345z"/>
	<path fill="#5B5C5C" d="M391.977,167.011c2.929,2.927,3.521,5.888,2.191,8.854c0.227-0.096,0.451-0.192,0.68-0.288l-0.008-37.427
		c-6.371-2.692-12.715-4.117-17.285-3.184c-6.692,1.362-17.496,7.84-25.594,13.19C370.107,152.712,384.42,159.453,391.977,167.011z"
		/>
	<path fill="#47494A" d="M233.501,88.312c0,0-12.783,8.85-12.783,91.447c39.566,39.566,95.379-2.458,95.379-2.458
		c0-36.382-4.727-81.898-13.426-107.322C293.974,44.555,233.501,88.312,233.501,88.312z"/>
	<path fill="#383838" d="M394.842,56.6c0-8.11,0-26.057,0-26.057L144.76,45.538v20.979c0,0,27.938,38.349,78.743,34.087
		C274.308,96.343,394.842,64.712,394.842,56.6z"/>
	<path fill="#303030" d="M253.004,5.223c58.309-13.236,119.96,0.657,138.972,19.666c19.013,19.011-60.157,39.375-127.83,53.755
		c-52.443,11.145-87.188-6.557-108.164-20.323C135.008,44.555,131.731,32.755,253.004,5.223z"/>
</g>
</svg>
