<?xml version="1.0" encoding="utf-8"?>
<!-- Generator: Adobe Illustrator 16.0.0, SVG Export Plug-In . SVG Version: 6.00 Build 0)  -->
<!DOCTYPE svg PUBLIC "-//W3C//DTD SVG 1.1//EN" "http://www.w3.org/Graphics/SVG/1.1/DTD/svg11.dtd">
<svg version="1.1" id="Layer_1" xmlns="http://www.w3.org/2000/svg" xmlns:xlink="http://www.w3.org/1999/xlink" x="0px" y="0px"
	 width="563.126px" height="599.102px" viewBox="18.436 0 563.126 599.102" enable-background="new 18.436 0 563.126 599.102"
	 xml:space="preserve">
<g>
	<g>
		<path fill="#F2F2F2" stroke="#000000" stroke-miterlimit="10" d="M160.677,109.804l59.936-31.592h39.958l54.609,31.592
			c0,0,0,330.729,0,410.645c0,26.638-154.502,26.638-154.502,0C160.677,493.811,160.677,109.804,160.677,109.804z"/>
		<path fill="#FBFCFE" stroke="#000000" stroke-miterlimit="10" d="M293.869,73.693c0,7.356-7.951,13.319-17.758,13.319h-76.364
			c-9.809,0-17.76-5.963-17.76-13.319V14.319c0-7.356,7.951-13.319,17.76-13.319h76.364c9.807,0,17.758,5.963,17.758,13.319V73.693z
			"/>
		<rect x="160.677" y="194.204" fill="#7F599F" stroke="#000000" stroke-miterlimit="10" width="154.503" height="140.121"/>
		<text transform="matrix(1 0 0 1 166.8052 284.2139)" font-family="'Sansita-Regular'" font-size="33.298">Phosphate</text>
	</g>
	<g>
		<path fill="#F2F2F2" stroke="#000000" stroke-miterlimit="10" d="M427.062,109.804l59.934-31.592h39.959l54.607,31.592
			c0,0,0,330.729,0,410.645c0,26.638-154.5,26.638-154.5,0C427.062,493.811,427.062,109.804,427.062,109.804z"/>
		<path fill="#FBFCFE" stroke="#000000" stroke-miterlimit="10" d="M560.254,73.693c0,7.356-7.953,13.319-17.76,13.319h-76.363
			c-9.809,0-17.76-5.963-17.76-13.319V14.319c0-7.356,7.951-13.319,17.76-13.319h76.363c9.807,0,17.76,5.963,17.76,13.319V73.693z"
			/>
		<rect x="427.062" y="194.204" fill="#E5E674" stroke="#000000" stroke-miterlimit="10" width="154.5" height="140.121"/>
		<text transform="matrix(1 0 0 1 449.6699 284.2139)" font-family="'Sansita-Regular'" font-size="39.9576">Nitrate</text>
	</g>
	<g>
		<path fill="#F2F2F2" stroke="#000000" stroke-miterlimit="10" d="M293.869,136.443l59.936-31.592h39.959l54.607,31.592
			c0,0,0,330.73,0,410.644c0,26.639-154.502,26.639-154.502,0C293.869,520.449,293.869,136.443,293.869,136.443z"/>
		<path fill="#FBFCFE" stroke="#000000" stroke-miterlimit="10" d="M427.062,100.331c0,7.356-7.953,13.319-17.761,13.319h-76.364
			c-9.808,0-17.759-5.963-17.759-13.319V40.958c0-7.356,7.951-13.32,17.759-13.32h76.364c9.808,0,17.761,5.963,17.761,13.32V100.331
			z"/>
		<rect x="293.869" y="220.843" fill="#DC496A" stroke="#000000" stroke-miterlimit="10" width="154.502" height="140.12"/>
		<text transform="matrix(1 0 0 1 309.8535 310.8535)" font-family="'Sansita-Regular'" font-size="75.9195">PH+</text>
	</g>
	<g>
		<path fill="#F2F2F2" stroke="#000000" stroke-miterlimit="10" d="M202.26,539.775c0,11.033-8.946,19.979-19.979,19.979H38.414
			c-11.034,0-19.978-8.943-19.978-19.979V313.934c0-11.033,8.944-19.979,19.978-19.979h143.867c11.033,0,19.979,8.945,19.979,19.979
			V539.775L202.26,539.775z"/>
		<ellipse fill="#FBFCFE" cx="110.528" cy="163.426" rx="26.095" ry="6.66"/>
		<rect x="84.433" y="158.765" fill="#FBFCFE" stroke="#000000" stroke-miterlimit="10" width="52.19" height="55.274"/>
		<path fill="#FBFCFE" stroke="#000000" stroke-miterlimit="10" d="M163.683,290.626c0,5.516-4.473,9.988-9.99,9.988H67.364
			c-5.517,0-9.989-4.473-9.989-9.988v-86.577c0-5.517,4.473-9.989,9.989-9.989h86.328c5.518,0,9.99,4.473,9.99,9.989
			L163.683,290.626L163.683,290.626z"/>
		<polygon fill="#981922" stroke="#000000" stroke-miterlimit="10" points="44.056,247.337 69.363,265.983 69.363,283.459 
			37.397,271.311 		"/>
		<path fill="#981922" stroke="#000000" stroke-miterlimit="10" d="M163.683,265.398c0,0-30.388,24.56-94.32,8.577
			c0,3.996,0,9.484,0,9.484s52.783,18.045,94.32-10.814C163.683,269.092,163.683,265.398,163.683,265.398z"/>
		<rect x="18.436" y="375.868" fill="#8BB8DD" stroke="#000000" stroke-miterlimit="10" width="183.824" height="82.577"/>
		<text transform="matrix(1 0 0 1 60.3892 441.2402)" font-family="'Sansita-Regular'" font-size="67.8797">test</text>
	</g>
	<g>
		<polygon fill="#FFFFFF" stroke="#000000" stroke-miterlimit="10" points="213.214,536.075 199.512,563.914 168.804,559.487 
			163.524,528.912 190.971,514.444 		"/>
		<polygon fill="#FFFFFF" stroke="#000000" stroke-miterlimit="10" points="201.142,516.394 183.976,530.479 162.26,525.838 
			152.349,505.968 161.704,485.83 183.281,480.589 200.833,494.189 		"/>
		<polygon fill="#FFFFFF" stroke="#000000" stroke-miterlimit="10" points="227.555,499.543 205.287,512.816 182.659,500.167 
			182.298,474.247 204.566,460.976 227.194,473.624 		"/>
		<polygon fill="#FFFFFF" stroke="#000000" stroke-miterlimit="10" points="224.559,527.837 210.241,542.561 189.705,542.847 
			174.981,528.526 174.695,507.992 189.015,493.269 209.551,492.984 224.273,507.302 		"/>
		<polygon fill="#FFFFFF" stroke="#000000" stroke-miterlimit="10" points="214.686,529.102 204.689,499.73 229.534,481.147 
			254.886,499.031 245.71,528.672 		"/>
		<polygon fill="#FFFFFF" stroke="#000000" stroke-miterlimit="10" points="237.14,534.484 239.319,512.388 257.954,500.312 
			279.013,507.354 286.638,528.21 275.086,547.173 253.059,549.967 		"/>
		<polygon fill="#FFFFFF" stroke="#000000" stroke-miterlimit="10" points="230.377,565.075 236.739,539.944 261.682,532.888 
			280.265,550.962 273.904,576.092 248.96,583.148 		"/>
		<polygon fill="#FFFFFF" stroke="#000000" stroke-miterlimit="10" points="212.489,542.951 212.202,522.414 226.522,507.691 
			247.058,507.406 261.781,521.725 262.066,542.261 247.748,556.984 227.212,557.269 		"/>
		<polygon fill="#FFFFFF" stroke="#000000" stroke-miterlimit="10" points="270.184,522.218 283.883,494.381 314.593,498.807 
			319.871,529.381 292.425,543.851 		"/>
		<polygon fill="#FFFFFF" stroke="#000000" stroke-miterlimit="10" points="282.253,541.902 299.421,527.815 321.135,532.456 
			331.047,552.326 321.691,572.465 300.115,577.707 282.562,564.104 		"/>
		<polygon fill="#FFFFFF" stroke="#000000" stroke-miterlimit="10" points="255.842,558.751 278.11,545.479 300.738,558.127 
			301.098,584.046 278.831,597.319 256.203,584.67 		"/>
		<polygon fill="#FFFFFF" stroke="#000000" stroke-miterlimit="10" points="258.836,530.456 273.156,515.733 293.692,515.448 
			308.414,529.768 308.7,550.302 294.382,565.025 273.845,565.312 259.123,550.991 		"/>
		<polygon fill="#FFFFFF" stroke="#000000" stroke-miterlimit="10" points="282.822,519.498 292.819,548.868 267.974,567.453 
			242.622,549.567 251.798,519.929 		"/>
		<polygon fill="#FFFFFF" stroke="#000000" stroke-miterlimit="10" points="260.368,514.115 258.189,536.213 239.554,548.288 
			218.495,541.246 210.87,520.391 222.422,501.427 244.45,498.633 		"/>
		<polygon fill="#FFFFFF" stroke="#000000" stroke-miterlimit="10" points="267.131,483.523 260.77,508.654 235.825,515.712 
			217.243,497.638 223.604,472.508 248.547,465.45 		"/>
		<polygon fill="#FFFFFF" stroke="#000000" stroke-miterlimit="10" points="285.02,505.649 285.305,526.185 270.986,540.908 
			250.451,541.194 235.727,526.875 235.441,506.34 249.76,491.616 270.297,491.331 		"/>
		<polygon fill="#FFFFFF" stroke="#000000" stroke-miterlimit="10" points="250.13,505.188 241.845,480.85 262.434,465.449 
			283.442,480.271 275.837,504.832 		"/>
		<polygon fill="#FFFFFF" stroke="#000000" stroke-miterlimit="10" points="268.736,509.649 270.542,491.338 285.985,481.334 
			303.436,487.167 309.754,504.449 300.182,520.165 281.927,522.48 		"/>
		<polygon fill="#FFFFFF" stroke="#000000" stroke-miterlimit="10" points="272.892,553.86 278.164,533.035 298.833,527.188 
			314.232,542.164 308.963,562.988 288.292,568.837 		"/>
		<polygon fill="#FFFFFF" stroke="#000000" stroke-miterlimit="10" points="248.308,516.664 248.071,499.648 259.938,487.448 
			276.955,487.21 289.156,499.076 289.393,516.093 277.525,528.295 260.509,528.531 		"/>
		<polygon fill="#FFFFFF" stroke="#000000" stroke-miterlimit="10" points="265.702,515.049 288.769,526.403 285.102,551.85 
			259.766,556.225 247.776,533.481 		"/>
		<polygon fill="#FFFFFF" stroke="#000000" stroke-miterlimit="10" points="239.63,506.192 251.302,520.418 247.458,538.412 
			230.991,546.627 214.303,538.874 209.959,520.994 221.231,506.448 		"/>
		<polygon fill="#FFFFFF" stroke="#000000" stroke-miterlimit="10" points="211.556,493.999 222.554,512.453 212.073,531.204 
			190.593,531.502 179.595,513.048 190.077,494.298 		"/>
		<polygon fill="#FFFFFF" stroke="#000000" stroke-miterlimit="10" points="258.875,505.647 271.076,517.513 271.312,534.53 
			259.446,546.731 242.428,546.968 230.228,535.104 229.991,518.085 241.857,505.883 		"/>
		<polygon fill="#FFFFFF" stroke="#000000" stroke-miterlimit="10" points="226.155,542.26 234.44,566.599 213.852,581.999 
			192.843,567.178 200.447,542.615 		"/>
		<polygon fill="#FFFFFF" stroke="#000000" stroke-miterlimit="10" points="215.332,542.958 213.526,561.27 198.083,571.275 
			180.632,565.441 174.313,548.159 183.886,532.443 202.14,530.129 		"/>
		<polygon fill="#FFFFFF" stroke="#000000" stroke-miterlimit="10" points="200.34,512.627 195.07,533.452 174.4,539.299 
			159,524.322 164.271,503.497 184.942,497.649 		"/>
		<polygon fill="#FFFFFF" stroke="#000000" stroke-miterlimit="10" points="215.165,530.96 215.402,547.979 203.536,560.179 
			186.519,560.416 174.318,548.551 174.081,531.533 185.948,519.33 202.964,519.095 		"/>
		<polygon fill="#FFFFFF" stroke="#000000" stroke-miterlimit="10" points="239.097,599.102 216.027,587.748 219.696,562.301 
			245.032,557.925 257.022,580.669 		"/>
		<polygon fill="#FFFFFF" stroke="#000000" stroke-miterlimit="10" points="238.286,555.479 226.614,541.255 230.458,523.26 
			246.923,515.046 263.612,522.798 267.956,540.679 256.684,555.224 		"/>
		<polygon fill="#FFFFFF" stroke="#000000" stroke-miterlimit="10" points="252.248,577.367 241.25,558.914 251.73,540.163 
			273.209,539.864 284.208,558.316 273.727,577.068 		"/>
		<polygon fill="#FFFFFF" stroke="#000000" stroke-miterlimit="10" points="228.801,574.885 216.6,563.019 216.364,546.002 
			228.23,533.802 245.247,533.564 257.448,545.43 257.684,562.446 245.819,574.649 		"/>
	</g>
</g>
</svg>
