<?xml version="1.0" encoding="utf-8"?>
<!-- Generator: Adobe Illustrator 16.0.0, SVG Export Plug-In . SVG Version: 6.00 Build 0)  -->
<!DOCTYPE svg PUBLIC "-//W3C//DTD SVG 1.1//EN" "http://www.w3.org/Graphics/SVG/1.1/DTD/svg11.dtd">
<svg version="1.1" id="Layer_1" xmlns="http://www.w3.org/2000/svg" xmlns:xlink="http://www.w3.org/1999/xlink" x="0px" y="0px"
	 width="598.25px" height="485.657px" viewBox="0 0 598.25 485.657" enable-background="new 0 0 598.25 485.657"
	 xml:space="preserve">
<g>
	<polygon fill="#6D6354" stroke="#000000" stroke-linejoin="round" stroke-miterlimit="10" points="598.25,167.401 75.623,167.401 
		1.75,0.583 475.129,0.583 	"/>
	<polygon fill="#544C43" stroke="#000000" stroke-linejoin="round" stroke-miterlimit="10" points="1.75,0.583 1.75,45.2 
		75.623,233.782 75.623,167.401 	"/>
	
		<rect x="75.623" y="167.401" fill="#5B4E3D" stroke="#000000" stroke-linejoin="round" stroke-miterlimit="10" width="522.627" height="66.381"/>
	
		<rect x="75.623" y="233.782" fill="#695B4A" stroke="#000000" stroke-linejoin="round" stroke-miterlimit="10" width="522.627" height="251.875"/>
	<polygon fill="#615A54" stroke="#000000" stroke-linejoin="round" stroke-miterlimit="10" points="1.75,45.2 1.75,259.432 
		75.623,485.657 75.623,233.782 	"/>
	<path fill="#7F756A" stroke="#000000" stroke-linejoin="round" stroke-miterlimit="10" d="M325.549,448.721
		c0,6.802-5.512,12.312-12.312,12.312H116.253c-6.799,0-12.312-5.512-12.312-12.312V262.816c0-6.799,5.513-12.312,12.312-12.312
		h196.984c6.8,0,12.312,5.512,12.312,12.312V448.721z"/>
	<path fill="#7F756A" stroke="#000000" stroke-linejoin="round" stroke-miterlimit="10" d="M567.166,448.721
		c0,6.802-5.512,12.312-12.312,12.312H357.87c-6.799,0-12.312-5.512-12.312-12.312V262.816c0-6.799,5.515-12.312,12.312-12.312
		h196.983c6.801,0,12.312,5.512,12.312,12.312L567.166,448.721L567.166,448.721z"/>
	<path fill="#9CA1A2" stroke="#000000" stroke-linejoin="round" stroke-miterlimit="10" d="M313.764,378.436
		c0,4.42-3.585,8.004-8.002,8.004l0,0c-4.422,0-8.005-3.584-8.005-8.004v-41.86c0-4.421,3.583-8.003,8.005-8.003l0,0
		c4.417,0,8.002,3.583,8.002,8.003V378.436z"/>
	<path fill="#9CA1A2" stroke="#000000" stroke-linejoin="round" stroke-miterlimit="10" d="M373.876,378.436
		c0,4.42-3.583,8.004-8.003,8.004l0,0c-4.421,0-8.003-3.584-8.003-8.004v-41.86c0-4.421,3.582-8.003,8.003-8.003l0,0
		c4.42,0,8.003,3.583,8.003,8.003V378.436z"/>
</g>
</svg>
