<?xml version="1.0" encoding="utf-8"?>
<!-- Generator: Adobe Illustrator 16.0.0, SVG Export Plug-In . SVG Version: 6.00 Build 0)  -->
<!DOCTYPE svg PUBLIC "-//W3C//DTD SVG 1.1//EN" "http://www.w3.org/Graphics/SVG/1.1/DTD/svg11.dtd">
<svg version="1.1" id="Layer_1" xmlns="http://www.w3.org/2000/svg" xmlns:xlink="http://www.w3.org/1999/xlink" x="0px" y="0px"
	 width="323.963px" height="599.923px" viewBox="254.537 0 323.963 599.923" enable-background="new 254.537 0 323.963 599.923"
	 xml:space="preserve">
<path fill="#434347" d="M578.5,89.255c0,0-57,58-171.481-32.195S305.5,75.346,305.5,75.346l-10-31.755
	c0,0,6.037-86.481,120.519,3.714S578.5,70.5,578.5,70.5V89.255z"/>
<g>
	<ellipse fill="#434347" cx="312.535" cy="277.065" rx="32.928" ry="39.414"/>
	<ellipse fill="#434347" cx="312.535" cy="143.86" rx="32.928" ry="39.414"/>
	<path fill="#5F6061" d="M313.906,574.981c0,2.755,0,24.941-24.943,24.941h-0.005c-24.941,0-24.941-22.188-24.941-24.941V94.962
		c0-2.755,2.232-4.988,4.988-4.988h39.913c2.756,0,4.988,2.233,4.988,4.988V574.981z"/>
	<path fill="#38383A" d="M318.896,93.703c0,3.045-2.232,5.515-4.988,5.515h-49.892c-2.757,0-4.989-2.47-4.989-5.515V31.63
		c0-3.046,2.232-5.516,4.989-5.516h49.892c2.756,0,4.988,2.47,4.988,5.516V93.703z"/>
	<path fill="#38383A" d="M313.906,20.331c0,2.754-2.232,4.988-4.988,4.988h-39.913c-2.756,0-4.988-2.234-4.988-4.988V5.492
		c0-2.755,2.232-4.989,4.988-4.989h39.913c2.756,0,4.988,2.234,4.988,4.989V20.331z"/>
	<circle fill="#E0CA6D" cx="270.491" cy="47.305" r="3.714"/>
	<path fill="#5773B2" d="M323.387,28.11c0,2.755-2.233,4.989-4.987,4.989h-58.875c-2.755,0-4.988-2.233-4.988-4.989v-6.247
		c0-2.756,2.233-4.989,4.988-4.989h58.875c2.754,0,4.987,2.233,4.987,4.989V28.11z"/>
</g>
</svg>
