<?xml version="1.0" encoding="utf-8"?>
<!-- Generator: Adobe Illustrator 16.0.0, SVG Export Plug-In . SVG Version: 6.00 Build 0)  -->
<!DOCTYPE svg PUBLIC "-//W3C//DTD SVG 1.1//EN" "http://www.w3.org/Graphics/SVG/1.1/DTD/svg11.dtd">
<svg version="1.1" id="Layer_1" xmlns="http://www.w3.org/2000/svg" xmlns:xlink="http://www.w3.org/1999/xlink" x="0px" y="0px"
	 width="11300px" height="767.668px" viewBox="0 0 11300 767.668" enable-background="new 0 0 11300 767.668" xml:space="preserve">
<polyline fill="none" stroke="#7897C9" stroke-width="20" stroke-miterlimit="10" points="0.601,541.71 455.601,541.71 
	731.601,84.71 1309.601,84.71 "/>
<polyline fill="none" stroke="#7897C9" stroke-width="20" stroke-miterlimit="10" points="2450.666,554.168 2726.666,97.168 
	3367.611,97.168 "/>
<polyline fill="none" stroke="#7897C9" stroke-width="20" stroke-miterlimit="10" points="4789.935,697.167 4979.572,383.166 
	5945.935,383.166 "/>
<polyline fill="none" stroke="#7897C9" stroke-width="20" stroke-miterlimit="10" points="5226.154,383.166 5415.792,69.165 
	6779.935,69.165 "/>
<polyline fill="none" stroke="#7897C9" stroke-width="20" stroke-miterlimit="10" points="3601.984,323.21 3827.579,696.749 
	5185.935,696.749 "/>
<polyline fill="none" stroke="#7897C9" stroke-width="20" stroke-miterlimit="10" points="8819.961,10.904 9045.555,384.443 
	10043.912,384.443 "/>
<polyline fill="none" stroke="#7897C9" stroke-width="20" stroke-miterlimit="10" points="1845.601,322.71 1051.601,322.71 
	927.601,84.71 "/>
<polyline fill="none" stroke="#7897C9" stroke-width="20" stroke-miterlimit="10" points="2820.557,560.71 1423.613,560.71 
	1299.613,322.71 "/>
<g>
	<text transform="matrix(1 0 0 1 -1 526.6523)" fill="#FFFFFF" font-family="'Sansita-Regular'" font-size="73.3843">1960</text>
</g>
<g>
	<text transform="matrix(1 0 0 1 1432.6011 545.71)" fill="#FFFFFF" font-family="'Sansita-Regular'" font-size="73.3843">1975</text>
</g>
<g>
	<text transform="matrix(1 0 0 1 2279.686 545.71)" fill="#FFFFFF" font-family="'Sansita-Regular'" font-size="73.3843">1980</text>
</g>
<g>
	<text transform="matrix(1 0 0 1 4494.686 681.5215)" fill="#FFFFFF" font-family="'Sansita-Regular'" font-size="73.3843">1990</text>
</g>
<g>
	<text transform="matrix(1 0 0 1 7302.9351 623.5215)" fill="#FFFFFF" font-family="'Sansita-Regular'" font-size="73.3843">2000</text>
</g>
<line fill="none" stroke="#7897C9" stroke-width="20" stroke-miterlimit="10" x1="99.601" y1="541.71" x2="99.601" y2="658.71"/>
<line fill="none" stroke="#7897C9" stroke-width="20" stroke-miterlimit="10" x1="2590.15" y1="323.21" x2="4404.715" y2="323.21"/>
<polyline fill="none" stroke="#7897C9" stroke-width="20" stroke-miterlimit="10" points="6431.935,69.165 6431.935,365.418 
	6779.935,365.418 "/>
<polyline fill="none" stroke="#7897C9" stroke-width="20" stroke-miterlimit="10" points="6431.935,342.542 6431.935,638.795 
	7470.298,638.795 7849.605,10.794 9383.748,10.794 "/>
<line fill="none" stroke="#7897C9" stroke-width="20" stroke-miterlimit="10" x1="7438.094" y1="638.795" x2="7857.937" y2="638.795"/>
<line fill="none" stroke="#7897C9" stroke-width="20" stroke-miterlimit="10" x1="7724.935" y1="217.292" x2="8191.091" y2="217.292"/>
<polyline fill="none" stroke="#7897C9" stroke-width="20" stroke-miterlimit="10" points="11277,443.981 10597.223,443.981 
	10407.586,757.982 9411.555,757.982 9185.961,384.443 "/>
<line fill="none" stroke="#7897C9" stroke-width="20" stroke-miterlimit="10" x1="10795.936" y1="443.981" x2="10795.936" y2="206.616"/>
<g>
	<text transform="matrix(1 0 0 1 11041.9355 429.0527)" fill="#FFFFFF" font-family="'Sansita-Regular'" font-size="73.3843">2017</text>
</g>
<g>
	<text transform="matrix(1 0 0 1 727.666 71.6523)" fill="#FFFFFF" font-family="'Sansita-Regular'" font-size="73.3843">1970</text>
</g>
<circle fill="#7895C8" cx="11277.064" cy="443.981" r="22.936"/>
</svg>
