<?xml version="1.0" encoding="utf-8"?>
<!-- Generator: Adobe Illustrator 16.0.0, SVG Export Plug-In . SVG Version: 6.00 Build 0)  -->
<!DOCTYPE svg PUBLIC "-//W3C//DTD SVG 1.1//EN" "http://www.w3.org/Graphics/SVG/1.1/DTD/svg11.dtd">
<svg version="1.1" id="Layer_1" xmlns="http://www.w3.org/2000/svg" xmlns:xlink="http://www.w3.org/1999/xlink" x="0px" y="0px"
	 width="453.917px" height="554.975px" viewBox="0 0 453.917 554.975" enable-background="new 0 0 453.917 554.975"
	 xml:space="preserve">
<g>
	<path fill="#698C89" d="M233.776,0c193.628,0,226.502,164.645,219.227,202.475c-16.646,86.565-114.795,121.268-214.696,121.513
		C128.713,324.264,17.013,283.079,8.49,223.421C-3.105,142.258,54.108,0,233.776,0z"/>
	<path fill="#6AAAA8" d="M86.454,231.703c0,0,52.951,45.826,22.112,134.844c-30.839,89.02,159.82,50.619,195.4,50.619
		c35.582,0,133.328-38.4,87.945-80.292c-45.382-41.891-46.221-84.072-29.672-105.691
		C378.786,209.564,129.508,190.245,86.454,231.703z"/>
	<path fill="#DDAC53" d="M96.926,356.075c0,0,55.855-5.236,62.837,41.892c6.982,47.127,36.655,129.165,0,146.619
		c-36.655,17.455-73.31,12.219-85.528-10.473C62.017,511.422,56.569,352.587,96.926,356.075z"/>
	<path fill="#E5B147" d="M408.126,334.464c0,0-40.719-25.517-39.812,25.102c0.907,50.619-38.734,148.365,27.342,151.856
		C461.729,514.914,431.222,336.547,408.126,334.464z"/>
	<path fill="#CD9D45" d="M335.385,335.128c-29.001-5.236-80.046-10.472-72.85,33.165c7.193,43.637,7.596,141.479,41.431,143.176
		c33.836,1.698,66.892-13.244,66.945-86.066C370.966,352.583,364.387,340.365,335.385,335.128z"/>
	<path fill="#E5B147" d="M161.854,353.31c27.002-14.11,86.269-29.929,99.85-0.781c13.578,29.148,28.971,141.534,15.007,158.94
		c-13.964,17.408-48.785,47.425-88.102,0.123C149.291,464.294,134.852,367.42,161.854,353.31z"/>
	<path fill="#77CDCF" d="M233.776,0c193.628,0,226.502,164.645,219.227,202.475c-16.646,86.565-123.314,30.307-223.216,30.556
		c-57.737,0.145-116.713,8.001-154.679,18.315c-13.947,3.788-20.624,21.382-28.079,24.393c-3.682-2.628-5.74-4.101-7.704-5.628
		C28.112,262.692,12.837,246.887,5,223.421C-20.975,145.657,54.108,0,233.776,0z"/>
	<path fill="#B19661" d="M108.565,258.33c0,0-28.852-81.568-65.166-67.492s3.629,84.901,3.629,84.901S62.317,271.419,108.565,258.33
		z"/>
	<path fill="#BB9F67" d="M230.486,239.711c0,0-5.554-90.268-66.066-77.716c-60.51,12.552-81.454,26.516-55.855,96.335
		C185.073,235.346,230.486,239.711,230.486,239.711z"/>
	<path fill="#A88E5A" d="M362.239,258.33c0,0,37.234-52.141,0-69.125c-37.235-16.984-128.739-30.515-131.753,0
		c-3.014,30.515,0,50.506,0,50.506S326.156,247.407,362.239,258.33z"/>
	<path fill="#B89C5C" d="M450.017,214.688c0,0-37.099-51.405-71.23-5.124c-2.891,21.501-16.547,48.766-16.547,48.766l48.996,14.832
		C411.235,273.162,441.003,253.092,450.017,214.688z"/>
</g>
</svg>
