<?xml version="1.0" encoding="utf-8"?>
<!-- Generator: Adobe Illustrator 16.0.0, SVG Export Plug-In . SVG Version: 6.00 Build 0)  -->
<!DOCTYPE svg PUBLIC "-//W3C//DTD SVG 1.1//EN" "http://www.w3.org/Graphics/SVG/1.1/DTD/svg11.dtd">
<svg version="1.1" id="Layer_1" xmlns="http://www.w3.org/2000/svg" xmlns:xlink="http://www.w3.org/1999/xlink" x="0px" y="0px"
	 width="520.542px" height="484.337px" viewBox="0 0 520.542 484.337" enable-background="new 0 0 520.542 484.337"
	 xml:space="preserve">
<g>
	<ellipse fill="#2C3851" cx="261.879" cy="252.596" rx="254.583" ry="224.579"/>
	<path fill="#E8AA57" d="M267.494,88.027c0,0-121.032,203.832-79.944,352.054c13.811,42.753-74.784,28.002-80.239-28.37
		C101.855,355.338,116.579,197.132,267.494,88.027z"/>
	<path fill="#E0AC45" d="M32.453,353.824c-22.189-129.37,61.22-238.521,209.423-265.797
		C154.823,151.981,70.033,259.422,82.952,395.375C86.589,433.562,39.185,393.073,32.453,353.824z"/>
	<path fill="#ECBB4A" d="M219.146,66.205c0,0-66.636-45.461-158.582,47.949C7.296,168.037-15.258,241.684,10.933,306.24
		c7.176,10.913,3.637-58.19,19.093-98.196C45.483,168.038,61.849,108.938,219.146,66.205z"/>
	<path fill="#CB9E44" d="M267.494,98.937c0,0,4.233,184.629-37.515,365.083c-8.106,34.067,131.914,29.521,131.914-45.944
		s-10.91-245.491-82.739-330.048C272.79,80.753,267.494,98.937,267.494,98.937z"/>
	<path fill="#D7AD46" d="M290.975,86.309c0,0,218.39,179.014,78.193,371.223c-10.911,18.732,92.741-22.183,93.649-117.65
		C463.728,244.413,440.996,168.947,290.975,86.309z"/>
	<path fill="#E0AB4E" d="M299.157,71.66c0,0,211.882,63.275,185.498,275.31c-5.472,36.556,47.264-30.729,33.625-112.558
		c-13.638-81.83-103.476-182.621-205.484-189.119C285.519,48.93,299.157,71.66,299.157,71.66z"/>
	<path fill="#DBAA62" d="M181.867,28.018c17.154-17.156,25.458-33.641,46.371-19.093c20.912,14.547,48.189-17.201,70.01-6.782
		c21.821,10.418,47.279,6.782,40.915,31.331c-6.365,24.549,0.408,69.185-31.618,73.528c-32.027,4.34-61.918,14.427-76.068,0
		c-14.15-14.429-51.428-26.563-49.61-40.045C183.686,53.476,168.229,41.656,181.867,28.018z"/>
</g>
</svg>
