<?xml version="1.0" encoding="utf-8"?>
<!-- Generator: Adobe Illustrator 16.0.0, SVG Export Plug-In . SVG Version: 6.00 Build 0)  -->
<!DOCTYPE svg PUBLIC "-//W3C//DTD SVG 1.1//EN" "http://www.w3.org/Graphics/SVG/1.1/DTD/svg11.dtd">
<svg version="1.1" id="Layer_1" xmlns="http://www.w3.org/2000/svg" xmlns:xlink="http://www.w3.org/1999/xlink" x="0px" y="0px"
	 width="582.602px" height="433.245px" viewBox="0 0 582.602 433.245" enable-background="new 0 0 582.602 433.245"
	 xml:space="preserve">
<path fill="#8E674A" d="M391.593,291.757c0,0-16.148,17.181-13.186,26.147c2.963,8.969,21.498,36.356,21.498,36.356l-6.566-1.811
	c0,0-21.18-29.812-18.152-41.954c3.026-12.143,10.85-20.271,10.85-20.271L391.593,291.757z"/>
<path fill="#8E674A" d="M351.982,291.059c0,0-15.854,18.883-16.068,27.971c-0.213,9.089,3.784,16.599,3.784,16.599l7.659-0.334
	c0,0-7.427-9.383-5.13-17.716s13.767-24.809,13.767-24.809L351.982,291.059z"/>
<path fill="#8E674A" d="M332.747,273.942c0,0-63.894-23.626-75.564-22.615c-11.67,1.011-1.396,19.169-1.396,19.169l4.87,1.931
	c0,0-5.394-13.41-1.213-14.006c4.182-0.598,79.646,20.851,79.646,20.851L332.747,273.942z"/>
<path fill="#FFFFFF" d="M293.506,200.097c0,0,69.297-72.884,139.729-106.183c9.751-4.376,11.672,1.586-2.923,10.605
	c-14.592,9.02-99.276,54.041-128.844,104.146C294.671,210.053,293.506,200.097,293.506,200.097z"/>
<path fill="#FFFFFF" d="M259.188,181.869c0,0-19.167-98.727-5.433-175.415c2.091-10.48,8.062-8.585,6.943,8.535
	c-1.118,17.119-13.572,112.215,10.088,165.364C267.973,186.693,259.188,181.869,259.188,181.869z"/>
<circle cx="300.644" cy="196.686" r="6.792"/>
<path fill="#B68555" d="M509.536,297.602c0,0-72.81-0.032-99.418,1.871c-26.609,1.905-82.094-5.78-92.527-21.153
	c-10.435-15.375-27.054-60.168-82.109-87.842c76.959,37.515,148.793,54.885,148.793,54.885S499.499,280.778,509.536,297.602z"/>
<path fill="#9E7451" d="M377.882,292.219c0,0-3.636,19.104-7.099,25.758c-3.465,6.652-34.369,33.999-34.369,33.999l77.162,78.872
	l-3.38,2.397l-66.432-64.57c0,0-19.629-13.561-8.938-24.743c10.69-11.184,30.398-27.486,30.398-27.486l6.181-22.425
	C371.405,294.021,373.399,289.013,377.882,292.219z"/>
<path fill="#9E7451" d="M364.335,292.072l-6.226,14.804c0,0-13.187,24.078-78.136,50.738c1.082,7.905,12.896,39.964,12.896,39.964
	l-5.904,1.702c0,0-13.993-35.987-11.765-44.069c2.227-8.079,26.992-7.231,73.688-46.529c1.67-6.062,6.861-18.976,6.861-18.976
	C360.655,287.047,364.335,292.072,364.335,292.072z"/>
<path fill="#9E7451" d="M329.874,280.074c-4.804-2.276-66.073-16.582-77.566-14.315c-11.493,2.268,0.683,19.209,0.683,19.209
	l5.051,1.393c0,0-6.812-12.746-2.72-13.792c4.093-1.047,81.433,12.119,81.433,12.119S334.679,282.35,329.874,280.074z"/>
<path fill="#FFFFFF" d="M289.383,228.673c0,0-89.523,3.61-193.618,115.121c-8.515,7.23-6.061-1.671-6.061-1.671
	s66.724-87.124,195.978-118.972C288.072,226.709,289.383,228.673,289.383,228.673z"/>
<path fill="#FFFFFF" d="M230.366,194.84c0,0-120.423,2.878-177.717,44.146c-13.982,5.386-15.56,2.232-6.4-3.394
	c9.159-5.627,79.434-47.663,183.502-46.694C231.074,191.98,230.366,194.84,230.366,194.84z"/>
<path fill="#FFFFFF" d="M189.194,171.347c0,0-126.98-25.224-180.413-11.764c-14.121,3.916-9.812,6.024,3.027,3.804
	c12.839-2.219,84.423-7.827,186.344,13.37L189.194,171.347z"/>
<path fill="#FFFFFF" d="M223.333,148.793c0,0-61.387-84.549-63.211-141.023c0.259-10.797-8.327-13.164-4.872,17.676
	c3.456,30.84,4.059,48.181,73.355,134.62C233.454,161.661,223.333,148.793,223.333,148.793z"/>
<path fill="#C81D2C" d="M187.92,170.82l97.685,40.374c0,0-58.505-40.578-62.271-62.4c25.159,24.05,85.462,49.23,117.673,65.444
	c32.21,16.212,43.455,24.204,43.455,24.204s37.533-3.104,68.725,7.938c31.19,11.042,69.904,30.271,69.904,30.271
	s65.352-6.44,59.088,16.285s-33.595,15.43-33.595,15.43s14.134,33.001-7.572,31.91c-21.708-1.093-41.659-39.603-41.659-39.603
	s-70.812-44.72-132.577-42.419c-61.766,2.302-31.639-13.848-72.117-31.116C254.181,209.869,187.92,170.82,187.92,170.82z"/>
<path fill="#FFFFFF" d="M261.641,192.982c0,0,78.608,23.511,112.131,46.48c37.78,5.521,39.343-11.98,133.687,34.13
	c-7.644,6.044-3.919,17.929-9.698,14.852c-5.777-3.075-4.898-13.153-4.898-13.153c-36.552-15.252-53.844-30.309-108.754-25.373
	c-30.788,1.297-17.179-4.703-40.235-15.691c-23.055-10.99-58.268-23.032-58.268-23.032S264.413,196.613,261.641,192.982z"/>
<path fill="#FFFFFF" d="M522.038,285.762c0,0-6.863,9.118-3.916,14.207c2.943,5.087,27.186,11.77,29.361,5.848
	S527.645,285.133,522.038,285.762z"/>
<circle cx="282.494" cy="211.401" r="7.612"/>
</svg>
