<?xml version="1.0" encoding="utf-8"?>
<!-- Generator: Adobe Illustrator 16.0.0, SVG Export Plug-In . SVG Version: 6.00 Build 0)  -->
<!DOCTYPE svg PUBLIC "-//W3C//DTD SVG 1.1//EN" "http://www.w3.org/Graphics/SVG/1.1/DTD/svg11.dtd">
<svg version="1.1" id="Layer_1" xmlns="http://www.w3.org/2000/svg" xmlns:xlink="http://www.w3.org/1999/xlink" x="0px" y="0px"
	 width="585.392px" height="500.951px" viewBox="0 0 585.392 500.951" enable-background="new 0 0 585.392 500.951"
	 xml:space="preserve">
<g>
	<path fill="#D092A4" d="M126.393,2.95c35.394-24.139,143.417,107.454,162.216,119.843c18.799,12.39,186.127-108.776,204.348-92.705
		c18.219,16.07-68.329,127.319-102.795,164.145c-34.467,36.826,135.248,37.131,182.739,92.516
		c47.49,55.386-63.727,26.186-117.395,19.625c-53.669-6.561-102.494-12.736-102.494-12.736s-26.114,79.639,2.978,146.464
		c29.093,66.824-14.105,80.02-44.737,32.568c-30.633-47.451-73.875-127.441-77.193-175.874
		c-61.603,10.298-224.149,9.99-232.684-12.48c-8.536-22.469,18.965-43.793,187.104-95.796
		C245.431,171.83,72.837,39.476,126.393,2.95z"/>
	<g>
		<path fill="#BA7F93" d="M370.78,179.131c-10.499,11.22,4.131,27.723,22.303,34.753c-4.646-6.199-5.981-15.928-1.954-20.232
			c34.467-36.826,121.015-148.074,102.795-164.145c-2.982-2.631-9.978-1.567-19.645,1.969
			C462.844,68.029,399.161,148.806,370.78,179.131z"/>
		<path fill="#BA7F93" d="M285.987,123.523c1.207,0.795,4.44,0.39,6.794,0.155C267.86,98.617,203.448,34.097,167.285,11.726
			C209.668,45.351,274.074,115.672,285.987,123.523z"/>
		<path fill="#BA7F93" d="M573.869,286.168c-6.478-7.555-15.634-13.184-25.83-18.922c1.817,1.709,3.915,2.576,5.48,4.402
			c47.491,55.385-63.727,26.184-117.396,19.624c-53.667-6.56-102.493-12.736-102.493-12.736s-26.115,79.639,2.979,146.462
			c19.984,45.904,5.856,66.499-14.875,59.518c29.06,31.809,61.399,15.126,35.224-44.996c-29.093-66.825-2.978-146.462-2.978-146.462
			s48.825,6.175,102.494,12.736C510.142,312.354,621.361,341.555,573.869,286.168z"/>
		<path fill="#BA7F93" d="M231.445,278.89c-50.114,8.378-183.787,12.538-230.251,0.658c0.228,1.398,0.655,2.775,1.149,4.188
			c9.712,27.724,164.688,23.845,232.684,12.478C233.783,290.257,231.807,284.178,231.445,278.89z"/>
	</g>
	<circle fill="#FFFFFF" cx="294.745" cy="213.098" r="7.66"/>
	<circle fill="#FFFFFF" cx="306.647" cy="187.81" r="8.249"/>
	<circle fill="#FFFFFF" cx="330.01" cy="223.929" r="8.838"/>
	<circle fill="#FFFFFF" cx="254.935" cy="265.562" r="8.061"/>
	<circle fill="#FFFFFF" cx="120.592" cy="246.99" r="4.714"/>
	<circle fill="#FFFFFF" cx="299.397" cy="416.036" r="4.714"/>
	<circle fill="#FFFFFF" cx="321.337" cy="442.836" r="6.482"/>
	<circle fill="#FFFFFF" cx="489.379" cy="265.99" r="4.713"/>
	<circle fill="#FFFFFF" cx="436.395" cy="70.535" r="3.535"/>
</g>
</svg>
