<?xml version="1.0" encoding="utf-8"?>
<!-- Generator: Adobe Illustrator 16.0.0, SVG Export Plug-In . SVG Version: 6.00 Build 0)  -->
<!DOCTYPE svg PUBLIC "-//W3C//DTD SVG 1.1//EN" "http://www.w3.org/Graphics/SVG/1.1/DTD/svg11.dtd">
<svg version="1.1" id="Layer_1" xmlns="http://www.w3.org/2000/svg" xmlns:xlink="http://www.w3.org/1999/xlink" x="0px" y="0px"
	 width="364.328px" height="576.516px" viewBox="0 0 364.328 576.516" enable-background="new 0 0 364.328 576.516"
	 xml:space="preserve">
<g>
	<path fill="#E0B36B" d="M288.319,35.716c0,0-8.156-24.411-25.995-23.472s-30.983,7.729-28.166,40.481
		c2.816,32.752,15.847,60.851,15.847,60.851l46.119-21.527L288.319,35.716z"/>
	<path fill="#C8994D" d="M256.691,30.779c-2.348-8.09-25.56-18.25-41.416-7.596c-15.856,10.655-17.047,42.542-17.047,42.542
		l11.98,37.897l39.796-15.656C250.004,87.967,259.038,38.869,256.691,30.779z"/>
	<path fill="#DDAC53" d="M288.319,148.268c0,0,0.294-30.065-5.34-34.692c-5.633-4.627-6.572-11.782,0-25.574
		c6.572-13.792,13.495-31.631,5.34-37.264c-8.156-5.633-24.117-14.083-33.506-7.511c-9.389,6.572-13.145,24.767-10.328,44.775
		s5.486,109.254,5.486,109.254l46.152-23.523L288.319,148.268z"/>
	<path fill="#DDAC53" d="M273.855,52.616c0,0,4.43-36.617,33.535-28.167c29.105,8.45-7.511,54.456-11.267,67.6
		c-3.755,13.145,0.076,63.845,0.076,63.845l-35.754,28.167l-3.755-35.792L273.855,52.616z"/>
	<path fill="#EAB765" d="M256.691,59.188c0,0-14.911-31.47-32.475-28.167c-17.562,3.303-26.126,8.45-26.4,28.167
		c-0.275,19.717-5.008,28.392-1.703,40.954c3.306,12.562-19.327,38.622-8.011,48.125s41.938,35.792,41.938,35.792l5.056-31.922
		L256.691,59.188z"/>
	<path fill="#DDAC53" d="M125.617,65.726c0,0-6.072-67.565,39.029-65.687c45.101,1.877,48.422,39.842,38.529,82.622
		c-9.895,42.78-32.861,12.206-32.861,12.206S126.926,104.186,125.617,65.726z"/>
	<path fill="#E0B36B" d="M71.729,130.529c0,0-29.652-62.891,21.321-64.769c50.973-1.878,29.181,73.233,32.566,89.194
		c3.385,15.961,3.998,40.829,1.813,46.703S74.546,155.865,71.729,130.529z"/>
	<path fill="#EAB765" d="M152.474,74.21c0,0-21.595-16.031-38.495-8.485s-8.758,29.141-6.726,39.468s-6.726,37.556,0,53.517
		s5.787,62.844,5.787,62.844l40.528-14.907c0,0-4.539-67.654,0-81.737C158.107,110.827,162.246,79.896,152.474,74.21z"/>
	<path fill="#EAB765" d="M70.791,113.644c29.075-1.646,38.113,27.228,35.487,42.25c-2.626,15.022-3.007,53.517,0,61.966
		c3.007,8.45-2.142,35.678,0.433,51.639c2.575,15.961-46.248,10.555-46.248,10.555s0-82.85,0-100.688S21.03,116.46,70.791,113.644z"
		/>
	<path fill="#C8994D" d="M153.413,201.658c0-47.642-16.364-51.561-31.636-53.275c-15.272-1.715-35.755,16.064-26.344,38.494
		c9.411,22.43-7.111,89.194,11.82,102.339s-2.529,39.605,6.726,53.517c9.255,13.911,44.203,11.267,44.203,11.267L153.413,201.658z"
		/>
	<path fill="#D69F46" d="M65.059,311.791c0,0-34.124-44.749-32.182-63.638c1.942-18.888-23.178-53.385-6.526-57.833
		c16.651-4.448,29.307-21.826,40.371,35.505c11.064,57.332,31.102,71.399,25.295,78.915
		C86.209,312.255,65.059,311.791,65.059,311.791z"/>
	<path fill="#E8B168" d="M71.729,447.888c0,0-18.778-11.267-23.472-34.738c-4.694-23.473-14.538-53.517-15.25-72.295
		c-0.711-18.777,2.105-42.733-6.345-60.8c-8.45-18.066-45.067-54.683-15.022-68.767c30.044-14.083,55.395-13.144,60.089,5.633
		c4.695,18.778,7.511,65.722,15.022,74.172s23.472,48.822,17.839,73.233s-4.212,52.577,1.18,65.722
		C111.163,443.193,71.729,447.888,71.729,447.888z"/>
	<path fill="#D3A150" d="M98.958,550.227v-22.533c0,0-20.656-21.595-19.717-32.861s-14.083-41.311-12.206-52.577
		s-1.878-64.783-6.572-81.684c-4.694-16.899-60.089-137.078,0-138.955c60.089-1.878,72.294,39.433,74.172,135.199
		c-0.939,21.595-1.878,20.596,0,29.076c1.878,8.479,6.572,23.502,5.633,32.891s1.877,36.617,5.633,43.189
		c3.755,6.572,13.145,43.188,12.206,51.639s-0.807,24.337,0.066,32.861C159.046,554.995,98.958,568.065,98.958,550.227z"/>
	<path fill="#DDAC53" d="M187.755,163.393c0,0,3.213-66.649-9.932-72.283c-13.144-5.633-37.29-9.443-36.621,43.203
		c0.668,52.646,1.112,62.943,1.112,62.943L187.755,163.393z"/>
	<path fill="#C8994D" d="M158.447,95.805c0,0-10.667-32.099,26.889-32.099s23.358,37.732,24.823,43.365s10.74,31.693,0,41.196
		s5.116,63.959,5.116,63.959l-34.537,51.721l-26.262-28.341L158.447,95.805z"/>
	<path fill="#D69F46" d="M240.729,369.021l52.578-25.35c0,0,30.983-145.528,52.578-169c21.594-23.472-15.961-34.739-30.045,0
		c6.572-40.372,15.961-24.44,15.961-44.142c0-19.702,15.962-21.58,10.328-34.724c-5.634-13.145-21.595-27.228-38.494-20.656
		c-16.9,6.572-16.9,38.062-15.022,46.259c1.878,8.197-12.616,25.003-14.758,42.419c-2.143,17.416-3.402-40.795-2.303-53.939
		c1.1-13.144-9.229-30.564-17.679-36.407c-8.449-5.843-29.271-3.026-29.657,34.529c-0.387,37.555,9.941,107.033,9.941,107.033
		l-6.572,65.011l13.144,51.411V369.021z"/>
	<path fill="#B28447" d="M247.301,272.316c0,0,11.268-139.894-12.205-146.466s-51.639-11.267-55.395,27.228
		c-3.756,38.495-9.389,114.544-9.389,114.544l10.328,92.95l69.363-55.395L247.301,272.316z"/>
	<path fill="#E5B360" d="M224.216,460.094c0,0-11.818-27.228,0-41.312c11.818-14.083,18.391-38.494,18.391-41.311
		c19.717-5.634,16.9-36.229,9.39-41.117c-12.206-29.3,25.35-29.3,18.777-50.894s-20.049-18.492-25.516-27.554
		c-5.468-9.062-26.123-24.084-31.757-10.94c-5.633,13.145-11.267,89.583-21.594,89.389c-10.328-0.194-13.145-61.222-10.328-83.755
		c2.816-22.533,14.083-58.211,8.45-71.355c-5.634-13.144,2.637-43.188-9.479-46.005c-12.116-2.816-44.038-12.206-41.222,7.511
		c2.816,19.716,1.878,66.538,5.633,78.805s-0.939,16.961-1.878,31.983c-0.939,15.022,3.193,30.621-3.931,41.773
		c-7.123,11.152-20.48,40.849-16.725,55.871c3.755,15.022,0.939,123.934,22.533,138.955
		C166.557,505.16,216.618,512.923,224.216,460.094z"/>
	<path fill="#2E363F" d="M358.647,513.202l-3.908-14.167c0,0,10.952-7.012,9.447-30.953c-1.504-23.941-11.898-39.181-11.898-39.181
		s17.04-42.781,9.656-49.021c-7.384-6.238-27.984,1.187-32.241-6.352c-4.257-7.536-0.244-67.033-9.249-69.764
		c4.952-15.292-0.275-25.423-11.462-24.267c-11.187,1.155-42.483,40.782-52.165,55.926s-12.512,39.222-24.133,39.925
		c-11.621,0.704-21.121,62.669-21.121,62.669l-12.883,31.233c0,0,42.321,18.167,49.477,26.146
		c7.154,7.977,31.119,17.482,38.112,15.988c6.992-1.492,56.945,16.96,56.945,16.96L358.647,513.202z"/>
	<path fill="#363A44" d="M121.777,576.516c0,0,1.592-42.25,21.308-52.577c19.717-10.328-4.694-59.15,33.8-57.272
		c38.494,1.878,57.272-37.556,72.294-24.411c15.022,13.145,30.663,40.372,22.373,55.395
		C263.263,512.671,280.735,575.577,121.777,576.516z"/>
</g>
</svg>
